<mxfile host="app.diagrams.net" agent="Mozilla/5.0 (Windows NT 10.0; Win64; x64) AppleWebKit/537.36 (KHTML, like Gecko) Chrome/135.0.0.0 Safari/537.36" version="26.2.14">
  <diagram name="Page-1" id="099fd60b-425b-db50-ffb0-6b813814b670">
    <mxGraphModel grid="1" page="1" gridSize="10" guides="1" tooltips="1" connect="1" arrows="1" fold="1" pageScale="1" pageWidth="850" pageHeight="1100" background="none" math="0" shadow="0">
      <root>
        <mxCell id="0" />
        <mxCell id="1" parent="0" />
        <mxCell id="KJ__jrjOPIoHM4R-JrTV-3" value="&lt;h1 style=&quot;margin-top: 0px;&quot;&gt;Input Port&lt;/h1&gt;&lt;p&gt;Data comes in flat and Buffered (16 Pixel =&amp;gt; 384 Bit). Data must be written in a special sequence into the Buffer, so it can be written and read in parallel with the max Bandwidth. For the sequence, the data must be passed to the right buffer and each buffer must have the right address.&lt;/p&gt;&lt;p&gt;In this example, the Data has the following format:&amp;nbsp;&lt;br&gt;Pixel exists of 24 Bit (3 x 8 Bit). Red ends with 0x1, green ends with 0x3 and blue ends with 0x7.&lt;br&gt;The higer 4 Bits indicate the SPI Stream, where dhe Data should go to. Because one Matrix is 8x16 Pixels (Width is 8), the indicator gets increased by one every 8 Bytes (64 Bit).&lt;/p&gt;" style="text;html=1;whiteSpace=wrap;overflow=hidden;rounded=0;" vertex="1" parent="1">
          <mxGeometry x="40" width="540" height="170" as="geometry" />
        </mxCell>
        <mxCell id="KJ__jrjOPIoHM4R-JrTV-4" value="s1_data_flat" style="text;html=1;align=center;verticalAlign=middle;whiteSpace=wrap;rounded=0;" vertex="1" parent="1">
          <mxGeometry x="10" y="230" width="70" height="30" as="geometry" />
        </mxCell>
        <mxCell id="KJ__jrjOPIoHM4R-JrTV-5" value="&lt;font style=&quot;font-size: 6px;&quot;&gt;0x01010101&lt;/font&gt;" style="text;html=1;align=center;verticalAlign=middle;whiteSpace=wrap;rounded=0;fillColor=#FF99CC;" vertex="1" parent="1">
          <mxGeometry x="100" y="240" width="40" height="10" as="geometry" />
        </mxCell>
        <mxCell id="KJ__jrjOPIoHM4R-JrTV-6" value="&lt;font style=&quot;font-size: 6px;&quot;&gt;0x01010101&lt;/font&gt;" style="text;html=1;align=center;verticalAlign=middle;whiteSpace=wrap;rounded=0;fillColor=#FFCCCC;" vertex="1" parent="1">
          <mxGeometry x="140" y="240" width="40" height="10" as="geometry" />
        </mxCell>
        <mxCell id="KJ__jrjOPIoHM4R-JrTV-7" value="&lt;font style=&quot;font-size: 6px;&quot;&gt;0x11111111&lt;/font&gt;" style="text;html=1;align=center;verticalAlign=middle;whiteSpace=wrap;rounded=0;fillColor=#FF99CC;" vertex="1" parent="1">
          <mxGeometry x="180" y="240" width="40" height="10" as="geometry" />
        </mxCell>
        <mxCell id="KJ__jrjOPIoHM4R-JrTV-8" value="&lt;font style=&quot;font-size: 6px;&quot;&gt;0x11111111&lt;/font&gt;" style="text;html=1;align=center;verticalAlign=middle;whiteSpace=wrap;rounded=0;fillColor=#FFCCCC;" vertex="1" parent="1">
          <mxGeometry x="220" y="240" width="40" height="10" as="geometry" />
        </mxCell>
        <mxCell id="KJ__jrjOPIoHM4R-JrTV-9" value="&lt;font style=&quot;font-size: 6px;&quot;&gt;0x03030303&lt;/font&gt;" style="text;html=1;align=center;verticalAlign=middle;whiteSpace=wrap;rounded=0;fillColor=#99FF99;" vertex="1" parent="1">
          <mxGeometry x="260" y="240" width="40" height="10" as="geometry" />
        </mxCell>
        <mxCell id="KJ__jrjOPIoHM4R-JrTV-10" value="&lt;span style=&quot;font-size: 6px;&quot;&gt;0x03030303&lt;/span&gt;" style="text;html=1;align=center;verticalAlign=middle;whiteSpace=wrap;rounded=0;fillColor=#CCFFCC;" vertex="1" parent="1">
          <mxGeometry x="300" y="240" width="40" height="10" as="geometry" />
        </mxCell>
        <mxCell id="KJ__jrjOPIoHM4R-JrTV-11" value="&lt;font style=&quot;font-size: 6px;&quot;&gt;0x13131313&lt;/font&gt;" style="text;html=1;align=center;verticalAlign=middle;whiteSpace=wrap;rounded=0;fillColor=#99FF99;" vertex="1" parent="1">
          <mxGeometry x="340" y="240" width="40" height="10" as="geometry" />
        </mxCell>
        <mxCell id="KJ__jrjOPIoHM4R-JrTV-12" value="&lt;span style=&quot;font-size: 6px;&quot;&gt;0x13131313&lt;/span&gt;" style="text;html=1;align=center;verticalAlign=middle;whiteSpace=wrap;rounded=0;fillColor=#CCFFCC;" vertex="1" parent="1">
          <mxGeometry x="380" y="240" width="40" height="10" as="geometry" />
        </mxCell>
        <mxCell id="KJ__jrjOPIoHM4R-JrTV-13" value="&lt;font style=&quot;font-size: 6px;&quot;&gt;0x07070707&lt;/font&gt;" style="text;html=1;align=center;verticalAlign=middle;whiteSpace=wrap;rounded=0;fillColor=#9999FF;" vertex="1" parent="1">
          <mxGeometry x="420" y="240" width="40" height="10" as="geometry" />
        </mxCell>
        <mxCell id="KJ__jrjOPIoHM4R-JrTV-14" value="&lt;span style=&quot;font-size: 6px;&quot;&gt;0x07070707&lt;/span&gt;" style="text;html=1;align=center;verticalAlign=middle;whiteSpace=wrap;rounded=0;fillColor=#CCCCFF;" vertex="1" parent="1">
          <mxGeometry x="460" y="240" width="40" height="10" as="geometry" />
        </mxCell>
        <mxCell id="KJ__jrjOPIoHM4R-JrTV-15" value="&lt;font style=&quot;font-size: 6px;&quot;&gt;0x17171717&lt;/font&gt;" style="text;html=1;align=center;verticalAlign=middle;whiteSpace=wrap;rounded=0;fillColor=#9999FF;" vertex="1" parent="1">
          <mxGeometry x="500" y="240" width="40" height="10" as="geometry" />
        </mxCell>
        <mxCell id="KJ__jrjOPIoHM4R-JrTV-16" value="&lt;span style=&quot;font-size: 6px;&quot;&gt;0x17171717&lt;/span&gt;" style="text;html=1;align=center;verticalAlign=middle;whiteSpace=wrap;rounded=0;fillColor=#CCCCFF;" vertex="1" parent="1">
          <mxGeometry x="540" y="240" width="40" height="10" as="geometry" />
        </mxCell>
        <mxCell id="KJ__jrjOPIoHM4R-JrTV-29" value="s2_data_swap" style="text;html=1;align=center;verticalAlign=middle;whiteSpace=wrap;rounded=0;" vertex="1" parent="1">
          <mxGeometry x="10" y="260" width="80" height="30" as="geometry" />
        </mxCell>
        <mxCell id="KJ__jrjOPIoHM4R-JrTV-30" value="&lt;font style=&quot;font-size: 6px;&quot;&gt;0x01010101&lt;/font&gt;" style="text;html=1;align=center;verticalAlign=middle;whiteSpace=wrap;rounded=0;fillColor=#FF99CC;" vertex="1" parent="1">
          <mxGeometry x="100" y="270" width="40" height="10" as="geometry" />
        </mxCell>
        <mxCell id="KJ__jrjOPIoHM4R-JrTV-31" value="&lt;font style=&quot;font-size: 6px;&quot;&gt;0x01010101&lt;/font&gt;" style="text;html=1;align=center;verticalAlign=middle;whiteSpace=wrap;rounded=0;fillColor=#FFCCCC;" vertex="1" parent="1">
          <mxGeometry x="140" y="270" width="40" height="10" as="geometry" />
        </mxCell>
        <mxCell id="KJ__jrjOPIoHM4R-JrTV-32" value="&lt;font style=&quot;font-size: 6px;&quot;&gt;0x11111111&lt;/font&gt;" style="text;html=1;align=center;verticalAlign=middle;whiteSpace=wrap;rounded=0;fillColor=#FF99CC;" vertex="1" parent="1">
          <mxGeometry x="180" y="270" width="40" height="10" as="geometry" />
        </mxCell>
        <mxCell id="KJ__jrjOPIoHM4R-JrTV-33" value="&lt;font style=&quot;font-size: 6px;&quot;&gt;0x11111111&lt;/font&gt;" style="text;html=1;align=center;verticalAlign=middle;whiteSpace=wrap;rounded=0;fillColor=#FFCCCC;" vertex="1" parent="1">
          <mxGeometry x="220" y="270" width="40" height="10" as="geometry" />
        </mxCell>
        <mxCell id="KJ__jrjOPIoHM4R-JrTV-34" value="&lt;font style=&quot;font-size: 6px;&quot;&gt;0x03030303&lt;/font&gt;" style="text;html=1;align=center;verticalAlign=middle;whiteSpace=wrap;rounded=0;fillColor=#99FF99;" vertex="1" parent="1">
          <mxGeometry x="260" y="270" width="40" height="10" as="geometry" />
        </mxCell>
        <mxCell id="KJ__jrjOPIoHM4R-JrTV-35" value="&lt;span style=&quot;font-size: 6px;&quot;&gt;0x03030303&lt;/span&gt;" style="text;html=1;align=center;verticalAlign=middle;whiteSpace=wrap;rounded=0;fillColor=#CCFFCC;" vertex="1" parent="1">
          <mxGeometry x="300" y="270" width="40" height="10" as="geometry" />
        </mxCell>
        <mxCell id="KJ__jrjOPIoHM4R-JrTV-36" value="&lt;font style=&quot;font-size: 6px;&quot;&gt;0x13131313&lt;/font&gt;" style="text;html=1;align=center;verticalAlign=middle;whiteSpace=wrap;rounded=0;fillColor=#99FF99;" vertex="1" parent="1">
          <mxGeometry x="340" y="270" width="40" height="10" as="geometry" />
        </mxCell>
        <mxCell id="KJ__jrjOPIoHM4R-JrTV-37" value="&lt;span style=&quot;font-size: 6px;&quot;&gt;0x13131313&lt;/span&gt;" style="text;html=1;align=center;verticalAlign=middle;whiteSpace=wrap;rounded=0;fillColor=#CCFFCC;" vertex="1" parent="1">
          <mxGeometry x="380" y="270" width="40" height="10" as="geometry" />
        </mxCell>
        <mxCell id="KJ__jrjOPIoHM4R-JrTV-38" value="&lt;font style=&quot;font-size: 6px;&quot;&gt;0x07070707&lt;/font&gt;" style="text;html=1;align=center;verticalAlign=middle;whiteSpace=wrap;rounded=0;fillColor=#9999FF;" vertex="1" parent="1">
          <mxGeometry x="420" y="270" width="40" height="10" as="geometry" />
        </mxCell>
        <mxCell id="KJ__jrjOPIoHM4R-JrTV-39" value="&lt;span style=&quot;font-size: 6px;&quot;&gt;0x07070707&lt;/span&gt;" style="text;html=1;align=center;verticalAlign=middle;whiteSpace=wrap;rounded=0;fillColor=#CCCCFF;" vertex="1" parent="1">
          <mxGeometry x="460" y="270" width="40" height="10" as="geometry" />
        </mxCell>
        <mxCell id="KJ__jrjOPIoHM4R-JrTV-40" value="&lt;font style=&quot;font-size: 6px;&quot;&gt;0x17171717&lt;/font&gt;" style="text;html=1;align=center;verticalAlign=middle;whiteSpace=wrap;rounded=0;fillColor=#9999FF;" vertex="1" parent="1">
          <mxGeometry x="500" y="270" width="40" height="10" as="geometry" />
        </mxCell>
        <mxCell id="KJ__jrjOPIoHM4R-JrTV-41" value="&lt;span style=&quot;font-size: 6px;&quot;&gt;0x17171717&lt;/span&gt;" style="text;html=1;align=center;verticalAlign=middle;whiteSpace=wrap;rounded=0;fillColor=#CCCCFF;" vertex="1" parent="1">
          <mxGeometry x="540" y="270" width="40" height="10" as="geometry" />
        </mxCell>
        <mxCell id="KJ__jrjOPIoHM4R-JrTV-42" value="&lt;span style=&quot;font-size: 10px;&quot;&gt;Input Data&lt;/span&gt;" style="text;html=1;align=center;verticalAlign=middle;whiteSpace=wrap;rounded=0;" vertex="1" parent="1">
          <mxGeometry x="620" y="235" width="50" height="15" as="geometry" />
        </mxCell>
        <mxCell id="KJ__jrjOPIoHM4R-JrTV-43" value="&lt;span style=&quot;font-size: 10px;&quot;&gt;Input Data does not change here, because &lt;br&gt;write_address % 6 &amp;lt; 3&amp;nbsp;&lt;/span&gt;" style="text;html=1;align=center;verticalAlign=middle;whiteSpace=wrap;rounded=0;" vertex="1" parent="1">
          <mxGeometry x="620" y="260" width="200" height="30" as="geometry" />
        </mxCell>
        <mxCell id="KJ__jrjOPIoHM4R-JrTV-44" value="1. Exaple: Write Address is 0" style="text;html=1;align=center;verticalAlign=middle;whiteSpace=wrap;rounded=0;" vertex="1" parent="1">
          <mxGeometry x="100" y="210" width="160" height="30" as="geometry" />
        </mxCell>
        <mxCell id="KJ__jrjOPIoHM4R-JrTV-46" value="&lt;font style=&quot;font-size: 6px;&quot;&gt;0x01010101&lt;/font&gt;" style="text;html=1;align=center;verticalAlign=middle;whiteSpace=wrap;rounded=0;fillColor=#FF99CC;" vertex="1" parent="1">
          <mxGeometry x="100" y="310" width="40" height="10" as="geometry" />
        </mxCell>
        <mxCell id="KJ__jrjOPIoHM4R-JrTV-47" value="&lt;font style=&quot;font-size: 6px;&quot;&gt;0x01010101&lt;/font&gt;" style="text;html=1;align=center;verticalAlign=middle;whiteSpace=wrap;rounded=0;fillColor=#FFCCCC;" vertex="1" parent="1">
          <mxGeometry x="140" y="310" width="40" height="10" as="geometry" />
        </mxCell>
        <mxCell id="KJ__jrjOPIoHM4R-JrTV-48" value="&lt;font style=&quot;font-size: 6px;&quot;&gt;0x11111111&lt;/font&gt;" style="text;html=1;align=center;verticalAlign=middle;whiteSpace=wrap;rounded=0;fillColor=#FF99CC;" vertex="1" parent="1">
          <mxGeometry x="180" y="310" width="40" height="10" as="geometry" />
        </mxCell>
        <mxCell id="KJ__jrjOPIoHM4R-JrTV-49" value="&lt;font style=&quot;font-size: 6px;&quot;&gt;0x11111111&lt;/font&gt;" style="text;html=1;align=center;verticalAlign=middle;whiteSpace=wrap;rounded=0;fillColor=#FFCCCC;" vertex="1" parent="1">
          <mxGeometry x="220" y="310" width="40" height="10" as="geometry" />
        </mxCell>
        <mxCell id="KJ__jrjOPIoHM4R-JrTV-50" value="&lt;font style=&quot;font-size: 6px;&quot;&gt;0x03030303&lt;/font&gt;" style="text;html=1;align=center;verticalAlign=middle;whiteSpace=wrap;rounded=0;fillColor=#99FF99;" vertex="1" parent="1">
          <mxGeometry x="270" y="310" width="40" height="10" as="geometry" />
        </mxCell>
        <mxCell id="KJ__jrjOPIoHM4R-JrTV-51" value="&lt;span style=&quot;font-size: 6px;&quot;&gt;0x03030303&lt;/span&gt;" style="text;html=1;align=center;verticalAlign=middle;whiteSpace=wrap;rounded=0;fillColor=#CCFFCC;" vertex="1" parent="1">
          <mxGeometry x="310" y="310" width="40" height="10" as="geometry" />
        </mxCell>
        <mxCell id="KJ__jrjOPIoHM4R-JrTV-52" value="&lt;font style=&quot;font-size: 6px;&quot;&gt;0x13131313&lt;/font&gt;" style="text;html=1;align=center;verticalAlign=middle;whiteSpace=wrap;rounded=0;fillColor=#99FF99;" vertex="1" parent="1">
          <mxGeometry x="350" y="310" width="40" height="10" as="geometry" />
        </mxCell>
        <mxCell id="KJ__jrjOPIoHM4R-JrTV-53" value="&lt;span style=&quot;font-size: 6px;&quot;&gt;0x13131313&lt;/span&gt;" style="text;html=1;align=center;verticalAlign=middle;whiteSpace=wrap;rounded=0;fillColor=#CCFFCC;" vertex="1" parent="1">
          <mxGeometry x="390" y="310" width="40" height="10" as="geometry" />
        </mxCell>
        <mxCell id="KJ__jrjOPIoHM4R-JrTV-54" value="&lt;font style=&quot;font-size: 6px;&quot;&gt;0x07070707&lt;/font&gt;" style="text;html=1;align=center;verticalAlign=middle;whiteSpace=wrap;rounded=0;fillColor=#9999FF;" vertex="1" parent="1">
          <mxGeometry x="440" y="310" width="40" height="10" as="geometry" />
        </mxCell>
        <mxCell id="KJ__jrjOPIoHM4R-JrTV-55" value="&lt;span style=&quot;font-size: 6px;&quot;&gt;0x07070707&lt;/span&gt;" style="text;html=1;align=center;verticalAlign=middle;whiteSpace=wrap;rounded=0;fillColor=#CCCCFF;" vertex="1" parent="1">
          <mxGeometry x="480" y="310" width="40" height="10" as="geometry" />
        </mxCell>
        <mxCell id="KJ__jrjOPIoHM4R-JrTV-56" value="&lt;font style=&quot;font-size: 6px;&quot;&gt;0x17171717&lt;/font&gt;" style="text;html=1;align=center;verticalAlign=middle;whiteSpace=wrap;rounded=0;fillColor=#9999FF;" vertex="1" parent="1">
          <mxGeometry x="520" y="310" width="40" height="10" as="geometry" />
        </mxCell>
        <mxCell id="KJ__jrjOPIoHM4R-JrTV-57" value="&lt;span style=&quot;font-size: 6px;&quot;&gt;0x17171717&lt;/span&gt;" style="text;html=1;align=center;verticalAlign=middle;whiteSpace=wrap;rounded=0;fillColor=#CCCCFF;" vertex="1" parent="1">
          <mxGeometry x="560" y="310" width="40" height="10" as="geometry" />
        </mxCell>
        <mxCell id="KJ__jrjOPIoHM4R-JrTV-58" value="s4_data_split_3" style="text;html=1;align=center;verticalAlign=middle;whiteSpace=wrap;rounded=0;" vertex="1" parent="1">
          <mxGeometry x="10" y="300" width="90" height="30" as="geometry" />
        </mxCell>
        <mxCell id="KJ__jrjOPIoHM4R-JrTV-59" value="&lt;span style=&quot;font-size: 10px;&quot;&gt;Data gets spitted into 3 parts&lt;/span&gt;" style="text;html=1;align=center;verticalAlign=middle;whiteSpace=wrap;rounded=0;" vertex="1" parent="1">
          <mxGeometry x="620" y="300" width="130" height="30" as="geometry" />
        </mxCell>
        <mxCell id="KJ__jrjOPIoHM4R-JrTV-60" value="s5_data_rotated" style="text;html=1;align=center;verticalAlign=middle;whiteSpace=wrap;rounded=0;" vertex="1" parent="1">
          <mxGeometry x="10" y="340" width="90" height="30" as="geometry" />
        </mxCell>
        <mxCell id="KJ__jrjOPIoHM4R-JrTV-61" value="&lt;font style=&quot;font-size: 6px;&quot;&gt;0x01010101&lt;/font&gt;" style="text;html=1;align=center;verticalAlign=middle;whiteSpace=wrap;rounded=0;fillColor=#FF99CC;" vertex="1" parent="1">
          <mxGeometry x="100" y="350" width="40" height="10" as="geometry" />
        </mxCell>
        <mxCell id="KJ__jrjOPIoHM4R-JrTV-62" value="&lt;font style=&quot;font-size: 6px;&quot;&gt;0x01010101&lt;/font&gt;" style="text;html=1;align=center;verticalAlign=middle;whiteSpace=wrap;rounded=0;fillColor=#FFCCCC;" vertex="1" parent="1">
          <mxGeometry x="140" y="350" width="40" height="10" as="geometry" />
        </mxCell>
        <mxCell id="KJ__jrjOPIoHM4R-JrTV-63" value="&lt;font style=&quot;font-size: 6px;&quot;&gt;0x11111111&lt;/font&gt;" style="text;html=1;align=center;verticalAlign=middle;whiteSpace=wrap;rounded=0;fillColor=#FF99CC;" vertex="1" parent="1">
          <mxGeometry x="180" y="350" width="40" height="10" as="geometry" />
        </mxCell>
        <mxCell id="KJ__jrjOPIoHM4R-JrTV-64" value="&lt;font style=&quot;font-size: 6px;&quot;&gt;0x11111111&lt;/font&gt;" style="text;html=1;align=center;verticalAlign=middle;whiteSpace=wrap;rounded=0;fillColor=#FFCCCC;" vertex="1" parent="1">
          <mxGeometry x="220" y="350" width="40" height="10" as="geometry" />
        </mxCell>
        <mxCell id="KJ__jrjOPIoHM4R-JrTV-65" value="&lt;font style=&quot;font-size: 6px;&quot;&gt;0x03030303&lt;/font&gt;" style="text;html=1;align=center;verticalAlign=middle;whiteSpace=wrap;rounded=0;fillColor=#99FF99;" vertex="1" parent="1">
          <mxGeometry x="270" y="350" width="40" height="10" as="geometry" />
        </mxCell>
        <mxCell id="KJ__jrjOPIoHM4R-JrTV-66" value="&lt;span style=&quot;font-size: 6px;&quot;&gt;0x03030303&lt;/span&gt;" style="text;html=1;align=center;verticalAlign=middle;whiteSpace=wrap;rounded=0;fillColor=#CCFFCC;" vertex="1" parent="1">
          <mxGeometry x="310" y="350" width="40" height="10" as="geometry" />
        </mxCell>
        <mxCell id="KJ__jrjOPIoHM4R-JrTV-67" value="&lt;font style=&quot;font-size: 6px;&quot;&gt;0x13131313&lt;/font&gt;" style="text;html=1;align=center;verticalAlign=middle;whiteSpace=wrap;rounded=0;fillColor=#99FF99;" vertex="1" parent="1">
          <mxGeometry x="350" y="350" width="40" height="10" as="geometry" />
        </mxCell>
        <mxCell id="KJ__jrjOPIoHM4R-JrTV-68" value="&lt;span style=&quot;font-size: 6px;&quot;&gt;0x13131313&lt;/span&gt;" style="text;html=1;align=center;verticalAlign=middle;whiteSpace=wrap;rounded=0;fillColor=#CCFFCC;" vertex="1" parent="1">
          <mxGeometry x="390" y="350" width="40" height="10" as="geometry" />
        </mxCell>
        <mxCell id="KJ__jrjOPIoHM4R-JrTV-69" value="&lt;font style=&quot;font-size: 6px;&quot;&gt;0x07070707&lt;/font&gt;" style="text;html=1;align=center;verticalAlign=middle;whiteSpace=wrap;rounded=0;fillColor=#9999FF;" vertex="1" parent="1">
          <mxGeometry x="440" y="350" width="40" height="10" as="geometry" />
        </mxCell>
        <mxCell id="KJ__jrjOPIoHM4R-JrTV-70" value="&lt;span style=&quot;font-size: 6px;&quot;&gt;0x07070707&lt;/span&gt;" style="text;html=1;align=center;verticalAlign=middle;whiteSpace=wrap;rounded=0;fillColor=#CCCCFF;" vertex="1" parent="1">
          <mxGeometry x="480" y="350" width="40" height="10" as="geometry" />
        </mxCell>
        <mxCell id="KJ__jrjOPIoHM4R-JrTV-71" value="&lt;font style=&quot;font-size: 6px;&quot;&gt;0x17171717&lt;/font&gt;" style="text;html=1;align=center;verticalAlign=middle;whiteSpace=wrap;rounded=0;fillColor=#9999FF;" vertex="1" parent="1">
          <mxGeometry x="520" y="350" width="40" height="10" as="geometry" />
        </mxCell>
        <mxCell id="KJ__jrjOPIoHM4R-JrTV-72" value="&lt;span style=&quot;font-size: 6px;&quot;&gt;0x17171717&lt;/span&gt;" style="text;html=1;align=center;verticalAlign=middle;whiteSpace=wrap;rounded=0;fillColor=#CCCCFF;" vertex="1" parent="1">
          <mxGeometry x="560" y="350" width="40" height="10" as="geometry" />
        </mxCell>
        <mxCell id="KJ__jrjOPIoHM4R-JrTV-73" value="&lt;span style=&quot;font-size: 10px;&quot;&gt;Colors rotate based on:&lt;br&gt;write_address % 3. Here it&#39;s 0, so no rotation&lt;/span&gt;" style="text;html=1;align=center;verticalAlign=middle;whiteSpace=wrap;rounded=0;" vertex="1" parent="1">
          <mxGeometry x="620" y="340" width="120" height="30" as="geometry" />
        </mxCell>
        <mxCell id="KJ__jrjOPIoHM4R-JrTV-74" value="&lt;font style=&quot;font-size: 6px;&quot;&gt;0x01010101&lt;/font&gt;" style="text;html=1;align=center;verticalAlign=middle;whiteSpace=wrap;rounded=0;fillColor=#FF99CC;" vertex="1" parent="1">
          <mxGeometry x="100" y="380" width="40" height="10" as="geometry" />
        </mxCell>
        <mxCell id="KJ__jrjOPIoHM4R-JrTV-75" value="&lt;font style=&quot;font-size: 6px;&quot;&gt;0x01010101&lt;/font&gt;" style="text;html=1;align=center;verticalAlign=middle;whiteSpace=wrap;rounded=0;fillColor=#FFCCCC;" vertex="1" parent="1">
          <mxGeometry x="150" y="380" width="40" height="10" as="geometry" />
        </mxCell>
        <mxCell id="KJ__jrjOPIoHM4R-JrTV-76" value="&lt;font style=&quot;font-size: 6px;&quot;&gt;0x11111111&lt;/font&gt;" style="text;html=1;align=center;verticalAlign=middle;whiteSpace=wrap;rounded=0;fillColor=#FF99CC;" vertex="1" parent="1">
          <mxGeometry x="100" y="400" width="40" height="10" as="geometry" />
        </mxCell>
        <mxCell id="KJ__jrjOPIoHM4R-JrTV-77" value="&lt;font style=&quot;font-size: 6px;&quot;&gt;0x11111111&lt;/font&gt;" style="text;html=1;align=center;verticalAlign=middle;whiteSpace=wrap;rounded=0;fillColor=#FFCCCC;" vertex="1" parent="1">
          <mxGeometry x="150" y="400" width="40" height="10" as="geometry" />
        </mxCell>
        <mxCell id="KJ__jrjOPIoHM4R-JrTV-78" value="&lt;font style=&quot;font-size: 6px;&quot;&gt;0x03030303&lt;/font&gt;" style="text;html=1;align=center;verticalAlign=middle;whiteSpace=wrap;rounded=0;fillColor=#99FF99;" vertex="1" parent="1">
          <mxGeometry x="100" y="420" width="40" height="10" as="geometry" />
        </mxCell>
        <mxCell id="KJ__jrjOPIoHM4R-JrTV-79" value="&lt;span style=&quot;font-size: 6px;&quot;&gt;0x03030303&lt;/span&gt;" style="text;html=1;align=center;verticalAlign=middle;whiteSpace=wrap;rounded=0;fillColor=#CCFFCC;" vertex="1" parent="1">
          <mxGeometry x="150" y="420" width="40" height="10" as="geometry" />
        </mxCell>
        <mxCell id="KJ__jrjOPIoHM4R-JrTV-80" value="&lt;font style=&quot;font-size: 6px;&quot;&gt;0x13131313&lt;/font&gt;" style="text;html=1;align=center;verticalAlign=middle;whiteSpace=wrap;rounded=0;fillColor=#99FF99;" vertex="1" parent="1">
          <mxGeometry x="100" y="440" width="40" height="10" as="geometry" />
        </mxCell>
        <mxCell id="KJ__jrjOPIoHM4R-JrTV-81" value="&lt;span style=&quot;font-size: 6px;&quot;&gt;0x13131313&lt;/span&gt;" style="text;html=1;align=center;verticalAlign=middle;whiteSpace=wrap;rounded=0;fillColor=#CCFFCC;" vertex="1" parent="1">
          <mxGeometry x="150" y="440" width="40" height="10" as="geometry" />
        </mxCell>
        <mxCell id="KJ__jrjOPIoHM4R-JrTV-82" value="&lt;font style=&quot;font-size: 6px;&quot;&gt;0x07070707&lt;/font&gt;" style="text;html=1;align=center;verticalAlign=middle;whiteSpace=wrap;rounded=0;fillColor=#9999FF;" vertex="1" parent="1">
          <mxGeometry x="100" y="460" width="40" height="10" as="geometry" />
        </mxCell>
        <mxCell id="KJ__jrjOPIoHM4R-JrTV-83" value="&lt;span style=&quot;font-size: 6px;&quot;&gt;0x07070707&lt;/span&gt;" style="text;html=1;align=center;verticalAlign=middle;whiteSpace=wrap;rounded=0;fillColor=#CCCCFF;" vertex="1" parent="1">
          <mxGeometry x="150" y="460" width="40" height="10" as="geometry" />
        </mxCell>
        <mxCell id="KJ__jrjOPIoHM4R-JrTV-84" value="&lt;font style=&quot;font-size: 6px;&quot;&gt;0x17171717&lt;/font&gt;" style="text;html=1;align=center;verticalAlign=middle;whiteSpace=wrap;rounded=0;fillColor=#9999FF;" vertex="1" parent="1">
          <mxGeometry x="100" y="480" width="40" height="10" as="geometry" />
        </mxCell>
        <mxCell id="KJ__jrjOPIoHM4R-JrTV-85" value="&lt;span style=&quot;font-size: 6px;&quot;&gt;0x17171717&lt;/span&gt;" style="text;html=1;align=center;verticalAlign=middle;whiteSpace=wrap;rounded=0;fillColor=#CCCCFF;" vertex="1" parent="1">
          <mxGeometry x="150" y="480" width="40" height="10" as="geometry" />
        </mxCell>
        <mxCell id="KJ__jrjOPIoHM4R-JrTV-86" value="Buffer" style="text;html=1;align=center;verticalAlign=middle;whiteSpace=wrap;rounded=0;" vertex="1" parent="1">
          <mxGeometry x="10" y="380" width="60" height="30" as="geometry" />
        </mxCell>
        <mxCell id="KJ__jrjOPIoHM4R-JrTV-87" value="&lt;font style=&quot;font-size: 10px;&quot;&gt;Data is passed like this into the Buffer&lt;/font&gt;" style="text;html=1;align=center;verticalAlign=middle;whiteSpace=wrap;rounded=0;" vertex="1" parent="1">
          <mxGeometry x="390" y="380" width="210" height="30" as="geometry" />
        </mxCell>
        <mxCell id="KJ__jrjOPIoHM4R-JrTV-88" value="1. Exaple: Write Address is 4" style="text;html=1;align=center;verticalAlign=middle;whiteSpace=wrap;rounded=0;" vertex="1" parent="1">
          <mxGeometry x="100" y="520" width="160" height="30" as="geometry" />
        </mxCell>
        <mxCell id="KJ__jrjOPIoHM4R-JrTV-89" value="s1_data_flat" style="text;html=1;align=center;verticalAlign=middle;whiteSpace=wrap;rounded=0;" vertex="1" parent="1">
          <mxGeometry x="10" y="560" width="70" height="30" as="geometry" />
        </mxCell>
        <mxCell id="KJ__jrjOPIoHM4R-JrTV-90" value="s2_data_swap" style="text;html=1;align=center;verticalAlign=middle;whiteSpace=wrap;rounded=0;" vertex="1" parent="1">
          <mxGeometry x="10" y="590" width="80" height="30" as="geometry" />
        </mxCell>
        <mxCell id="KJ__jrjOPIoHM4R-JrTV-91" value="s4_data_split_3" style="text;html=1;align=center;verticalAlign=middle;whiteSpace=wrap;rounded=0;" vertex="1" parent="1">
          <mxGeometry x="10" y="630" width="90" height="30" as="geometry" />
        </mxCell>
        <mxCell id="KJ__jrjOPIoHM4R-JrTV-92" value="s5_data_rotated" style="text;html=1;align=center;verticalAlign=middle;whiteSpace=wrap;rounded=0;" vertex="1" parent="1">
          <mxGeometry x="10" y="670" width="90" height="30" as="geometry" />
        </mxCell>
        <mxCell id="KJ__jrjOPIoHM4R-JrTV-93" value="Buffer" style="text;html=1;align=center;verticalAlign=middle;whiteSpace=wrap;rounded=0;" vertex="1" parent="1">
          <mxGeometry x="10" y="710" width="60" height="30" as="geometry" />
        </mxCell>
        <mxCell id="KJ__jrjOPIoHM4R-JrTV-94" value="&lt;font style=&quot;font-size: 6px;&quot;&gt;0x87878787&lt;/font&gt;" style="text;html=1;align=center;verticalAlign=middle;whiteSpace=wrap;rounded=0;fillColor=#9999FF;" vertex="1" parent="1">
          <mxGeometry x="420" y="570" width="40" height="10" as="geometry" />
        </mxCell>
        <mxCell id="KJ__jrjOPIoHM4R-JrTV-95" value="&lt;span style=&quot;font-size: 6px;&quot;&gt;0x87878787&lt;/span&gt;" style="text;html=1;align=center;verticalAlign=middle;whiteSpace=wrap;rounded=0;fillColor=#CCCCFF;" vertex="1" parent="1">
          <mxGeometry x="460" y="570" width="40" height="10" as="geometry" />
        </mxCell>
        <mxCell id="KJ__jrjOPIoHM4R-JrTV-96" value="&lt;span style=&quot;font-size: 6px;&quot;&gt;0x97979797&lt;/span&gt;" style="text;html=1;align=center;verticalAlign=middle;whiteSpace=wrap;rounded=0;fillColor=#9999FF;" vertex="1" parent="1">
          <mxGeometry x="500" y="570" width="40" height="10" as="geometry" />
        </mxCell>
        <mxCell id="KJ__jrjOPIoHM4R-JrTV-97" value="&lt;span style=&quot;font-size: 6px;&quot;&gt;0x97979797&lt;/span&gt;" style="text;html=1;align=center;verticalAlign=middle;whiteSpace=wrap;rounded=0;fillColor=#CCCCFF;" vertex="1" parent="1">
          <mxGeometry x="540" y="570" width="40" height="10" as="geometry" />
        </mxCell>
        <mxCell id="KJ__jrjOPIoHM4R-JrTV-98" value="&lt;font style=&quot;font-size: 6px;&quot;&gt;0x81818181&lt;/font&gt;" style="text;html=1;align=center;verticalAlign=middle;whiteSpace=wrap;rounded=0;fillColor=#FF99CC;" vertex="1" parent="1">
          <mxGeometry x="100" y="570" width="40" height="10" as="geometry" />
        </mxCell>
        <mxCell id="KJ__jrjOPIoHM4R-JrTV-99" value="&lt;span style=&quot;font-size: 6px;&quot;&gt;0x81818181&lt;/span&gt;" style="text;html=1;align=center;verticalAlign=middle;whiteSpace=wrap;rounded=0;fillColor=#FFCCCC;" vertex="1" parent="1">
          <mxGeometry x="140" y="570" width="40" height="10" as="geometry" />
        </mxCell>
        <mxCell id="KJ__jrjOPIoHM4R-JrTV-100" value="&lt;span style=&quot;font-size: 6px;&quot;&gt;0x91919191&lt;/span&gt;" style="text;html=1;align=center;verticalAlign=middle;whiteSpace=wrap;rounded=0;fillColor=#FF99CC;" vertex="1" parent="1">
          <mxGeometry x="180" y="570" width="40" height="10" as="geometry" />
        </mxCell>
        <mxCell id="KJ__jrjOPIoHM4R-JrTV-101" value="&lt;span style=&quot;font-size: 6px;&quot;&gt;0x91919191&lt;/span&gt;" style="text;html=1;align=center;verticalAlign=middle;whiteSpace=wrap;rounded=0;fillColor=#FFCCCC;" vertex="1" parent="1">
          <mxGeometry x="220" y="570" width="40" height="10" as="geometry" />
        </mxCell>
        <mxCell id="KJ__jrjOPIoHM4R-JrTV-102" value="&lt;font style=&quot;font-size: 6px;&quot;&gt;0x83838383&lt;/font&gt;" style="text;html=1;align=center;verticalAlign=middle;whiteSpace=wrap;rounded=0;fillColor=#99FF99;" vertex="1" parent="1">
          <mxGeometry x="260" y="570" width="40" height="10" as="geometry" />
        </mxCell>
        <mxCell id="KJ__jrjOPIoHM4R-JrTV-103" value="&lt;span style=&quot;font-size: 6px;&quot;&gt;0x83838383&lt;/span&gt;" style="text;html=1;align=center;verticalAlign=middle;whiteSpace=wrap;rounded=0;fillColor=#CCFFCC;" vertex="1" parent="1">
          <mxGeometry x="300" y="570" width="40" height="10" as="geometry" />
        </mxCell>
        <mxCell id="KJ__jrjOPIoHM4R-JrTV-104" value="&lt;span style=&quot;font-size: 6px;&quot;&gt;0x93939393&lt;/span&gt;" style="text;html=1;align=center;verticalAlign=middle;whiteSpace=wrap;rounded=0;fillColor=#99FF99;" vertex="1" parent="1">
          <mxGeometry x="340" y="570" width="40" height="10" as="geometry" />
        </mxCell>
        <mxCell id="KJ__jrjOPIoHM4R-JrTV-105" value="&lt;span style=&quot;font-size: 6px;&quot;&gt;0x93939393&lt;/span&gt;" style="text;html=1;align=center;verticalAlign=middle;whiteSpace=wrap;rounded=0;fillColor=#CCFFCC;" vertex="1" parent="1">
          <mxGeometry x="380" y="570" width="40" height="10" as="geometry" />
        </mxCell>
        <mxCell id="KJ__jrjOPIoHM4R-JrTV-106" value="&lt;font style=&quot;font-size: 18px;&quot;&gt;Data Distribution&lt;/font&gt;" style="text;html=1;align=center;verticalAlign=middle;whiteSpace=wrap;rounded=0;" vertex="1" parent="1">
          <mxGeometry y="190" width="150" height="30" as="geometry" />
        </mxCell>
        <mxCell id="KJ__jrjOPIoHM4R-JrTV-107" value="&lt;font style=&quot;font-size: 6px;&quot;&gt;0x87878787&lt;/font&gt;" style="text;html=1;align=center;verticalAlign=middle;whiteSpace=wrap;rounded=0;fillColor=#9999FF;" vertex="1" parent="1">
          <mxGeometry x="460" y="600" width="40" height="10" as="geometry" />
        </mxCell>
        <mxCell id="KJ__jrjOPIoHM4R-JrTV-108" value="&lt;span style=&quot;font-size: 6px;&quot;&gt;0x87878787&lt;/span&gt;" style="text;html=1;align=center;verticalAlign=middle;whiteSpace=wrap;rounded=0;fillColor=#CCCCFF;" vertex="1" parent="1">
          <mxGeometry x="420" y="600" width="40" height="10" as="geometry" />
        </mxCell>
        <mxCell id="KJ__jrjOPIoHM4R-JrTV-109" value="&lt;span style=&quot;font-size: 6px;&quot;&gt;0x97979797&lt;/span&gt;" style="text;html=1;align=center;verticalAlign=middle;whiteSpace=wrap;rounded=0;fillColor=#9999FF;" vertex="1" parent="1">
          <mxGeometry x="540" y="600" width="40" height="10" as="geometry" />
        </mxCell>
        <mxCell id="KJ__jrjOPIoHM4R-JrTV-110" value="&lt;span style=&quot;font-size: 6px;&quot;&gt;0x97979797&lt;/span&gt;" style="text;html=1;align=center;verticalAlign=middle;whiteSpace=wrap;rounded=0;fillColor=#CCCCFF;" vertex="1" parent="1">
          <mxGeometry x="500" y="600" width="40" height="10" as="geometry" />
        </mxCell>
        <mxCell id="KJ__jrjOPIoHM4R-JrTV-111" value="&lt;font style=&quot;font-size: 6px;&quot;&gt;0x81818181&lt;/font&gt;" style="text;html=1;align=center;verticalAlign=middle;whiteSpace=wrap;rounded=0;fillColor=#FF99CC;" vertex="1" parent="1">
          <mxGeometry x="140" y="600" width="40" height="10" as="geometry" />
        </mxCell>
        <mxCell id="KJ__jrjOPIoHM4R-JrTV-112" value="&lt;span style=&quot;font-size: 6px;&quot;&gt;0x81818181&lt;/span&gt;" style="text;html=1;align=center;verticalAlign=middle;whiteSpace=wrap;rounded=0;fillColor=#FFCCCC;" vertex="1" parent="1">
          <mxGeometry x="100" y="600" width="40" height="10" as="geometry" />
        </mxCell>
        <mxCell id="KJ__jrjOPIoHM4R-JrTV-113" value="&lt;span style=&quot;font-size: 6px;&quot;&gt;0x91919191&lt;/span&gt;" style="text;html=1;align=center;verticalAlign=middle;whiteSpace=wrap;rounded=0;fillColor=#FF99CC;" vertex="1" parent="1">
          <mxGeometry x="220" y="600" width="40" height="10" as="geometry" />
        </mxCell>
        <mxCell id="KJ__jrjOPIoHM4R-JrTV-114" value="&lt;span style=&quot;font-size: 6px;&quot;&gt;0x91919191&lt;/span&gt;" style="text;html=1;align=center;verticalAlign=middle;whiteSpace=wrap;rounded=0;fillColor=#FFCCCC;" vertex="1" parent="1">
          <mxGeometry x="180" y="600" width="40" height="10" as="geometry" />
        </mxCell>
        <mxCell id="KJ__jrjOPIoHM4R-JrTV-115" value="&lt;font style=&quot;font-size: 6px;&quot;&gt;0x83838383&lt;/font&gt;" style="text;html=1;align=center;verticalAlign=middle;whiteSpace=wrap;rounded=0;fillColor=#99FF99;" vertex="1" parent="1">
          <mxGeometry x="300" y="600" width="40" height="10" as="geometry" />
        </mxCell>
        <mxCell id="KJ__jrjOPIoHM4R-JrTV-116" value="&lt;span style=&quot;font-size: 6px;&quot;&gt;0x83838383&lt;/span&gt;" style="text;html=1;align=center;verticalAlign=middle;whiteSpace=wrap;rounded=0;fillColor=#CCFFCC;" vertex="1" parent="1">
          <mxGeometry x="260" y="600" width="40" height="10" as="geometry" />
        </mxCell>
        <mxCell id="KJ__jrjOPIoHM4R-JrTV-117" value="&lt;span style=&quot;font-size: 6px;&quot;&gt;0x93939393&lt;/span&gt;" style="text;html=1;align=center;verticalAlign=middle;whiteSpace=wrap;rounded=0;fillColor=#99FF99;" vertex="1" parent="1">
          <mxGeometry x="380" y="600" width="40" height="10" as="geometry" />
        </mxCell>
        <mxCell id="KJ__jrjOPIoHM4R-JrTV-118" value="&lt;span style=&quot;font-size: 6px;&quot;&gt;0x93939393&lt;/span&gt;" style="text;html=1;align=center;verticalAlign=middle;whiteSpace=wrap;rounded=0;fillColor=#CCFFCC;" vertex="1" parent="1">
          <mxGeometry x="340" y="600" width="40" height="10" as="geometry" />
        </mxCell>
        <mxCell id="KJ__jrjOPIoHM4R-JrTV-119" value="&lt;span style=&quot;font-size: 10px;&quot;&gt;Input Data&lt;/span&gt;" style="text;html=1;align=center;verticalAlign=middle;whiteSpace=wrap;rounded=0;" vertex="1" parent="1">
          <mxGeometry x="620" y="565" width="50" height="15" as="geometry" />
        </mxCell>
        <mxCell id="KJ__jrjOPIoHM4R-JrTV-120" value="&lt;span style=&quot;font-size: 10px;&quot;&gt;First and last 32 Bit of each Stream get swapped, beacuse:&lt;br&gt;write_address % 6 &amp;gt;= 3&lt;/span&gt;" style="text;html=1;align=center;verticalAlign=middle;whiteSpace=wrap;rounded=0;" vertex="1" parent="1">
          <mxGeometry x="620" y="590" width="180" height="30" as="geometry" />
        </mxCell>
        <mxCell id="KJ__jrjOPIoHM4R-JrTV-121" value="&lt;span style=&quot;font-size: 10px;&quot;&gt;Data gets spitted into 3 parts&lt;/span&gt;" style="text;html=1;align=center;verticalAlign=middle;whiteSpace=wrap;rounded=0;" vertex="1" parent="1">
          <mxGeometry x="620" y="630" width="130" height="30" as="geometry" />
        </mxCell>
        <mxCell id="KJ__jrjOPIoHM4R-JrTV-122" value="&lt;span style=&quot;font-size: 10px;&quot;&gt;Colors rotate based on:&lt;br&gt;write_address % 3. Here it&#39;s 1, so rotation by 1&lt;/span&gt;" style="text;html=1;align=center;verticalAlign=middle;whiteSpace=wrap;rounded=0;" vertex="1" parent="1">
          <mxGeometry x="620" y="670" width="120" height="30" as="geometry" />
        </mxCell>
        <mxCell id="KJ__jrjOPIoHM4R-JrTV-123" value="&lt;font style=&quot;font-size: 6px;&quot;&gt;0x87878787&lt;/font&gt;" style="text;html=1;align=center;verticalAlign=middle;whiteSpace=wrap;rounded=0;fillColor=#9999FF;" vertex="1" parent="1">
          <mxGeometry x="480" y="640" width="40" height="10" as="geometry" />
        </mxCell>
        <mxCell id="KJ__jrjOPIoHM4R-JrTV-124" value="&lt;span style=&quot;font-size: 6px;&quot;&gt;0x87878787&lt;/span&gt;" style="text;html=1;align=center;verticalAlign=middle;whiteSpace=wrap;rounded=0;fillColor=#CCCCFF;" vertex="1" parent="1">
          <mxGeometry x="440" y="640" width="40" height="10" as="geometry" />
        </mxCell>
        <mxCell id="KJ__jrjOPIoHM4R-JrTV-125" value="&lt;span style=&quot;font-size: 6px;&quot;&gt;0x97979797&lt;/span&gt;" style="text;html=1;align=center;verticalAlign=middle;whiteSpace=wrap;rounded=0;fillColor=#9999FF;" vertex="1" parent="1">
          <mxGeometry x="560" y="640" width="40" height="10" as="geometry" />
        </mxCell>
        <mxCell id="KJ__jrjOPIoHM4R-JrTV-126" value="&lt;span style=&quot;font-size: 6px;&quot;&gt;0x97979797&lt;/span&gt;" style="text;html=1;align=center;verticalAlign=middle;whiteSpace=wrap;rounded=0;fillColor=#CCCCFF;" vertex="1" parent="1">
          <mxGeometry x="520" y="640" width="40" height="10" as="geometry" />
        </mxCell>
        <mxCell id="KJ__jrjOPIoHM4R-JrTV-127" value="&lt;font style=&quot;font-size: 6px;&quot;&gt;0x81818181&lt;/font&gt;" style="text;html=1;align=center;verticalAlign=middle;whiteSpace=wrap;rounded=0;fillColor=#FF99CC;" vertex="1" parent="1">
          <mxGeometry x="140" y="640" width="40" height="10" as="geometry" />
        </mxCell>
        <mxCell id="KJ__jrjOPIoHM4R-JrTV-128" value="&lt;span style=&quot;font-size: 6px;&quot;&gt;0x81818181&lt;/span&gt;" style="text;html=1;align=center;verticalAlign=middle;whiteSpace=wrap;rounded=0;fillColor=#FFCCCC;" vertex="1" parent="1">
          <mxGeometry x="100" y="640" width="40" height="10" as="geometry" />
        </mxCell>
        <mxCell id="KJ__jrjOPIoHM4R-JrTV-129" value="&lt;span style=&quot;font-size: 6px;&quot;&gt;0x91919191&lt;/span&gt;" style="text;html=1;align=center;verticalAlign=middle;whiteSpace=wrap;rounded=0;fillColor=#FF99CC;" vertex="1" parent="1">
          <mxGeometry x="220" y="640" width="40" height="10" as="geometry" />
        </mxCell>
        <mxCell id="KJ__jrjOPIoHM4R-JrTV-130" value="&lt;span style=&quot;font-size: 6px;&quot;&gt;0x91919191&lt;/span&gt;" style="text;html=1;align=center;verticalAlign=middle;whiteSpace=wrap;rounded=0;fillColor=#FFCCCC;" vertex="1" parent="1">
          <mxGeometry x="180" y="640" width="40" height="10" as="geometry" />
        </mxCell>
        <mxCell id="KJ__jrjOPIoHM4R-JrTV-131" value="&lt;font style=&quot;font-size: 6px;&quot;&gt;0x83838383&lt;/font&gt;" style="text;html=1;align=center;verticalAlign=middle;whiteSpace=wrap;rounded=0;fillColor=#99FF99;" vertex="1" parent="1">
          <mxGeometry x="310" y="640" width="40" height="10" as="geometry" />
        </mxCell>
        <mxCell id="KJ__jrjOPIoHM4R-JrTV-132" value="&lt;span style=&quot;font-size: 6px;&quot;&gt;0x83838383&lt;/span&gt;" style="text;html=1;align=center;verticalAlign=middle;whiteSpace=wrap;rounded=0;fillColor=#CCFFCC;" vertex="1" parent="1">
          <mxGeometry x="270" y="640" width="40" height="10" as="geometry" />
        </mxCell>
        <mxCell id="KJ__jrjOPIoHM4R-JrTV-133" value="&lt;span style=&quot;font-size: 6px;&quot;&gt;0x93939393&lt;/span&gt;" style="text;html=1;align=center;verticalAlign=middle;whiteSpace=wrap;rounded=0;fillColor=#99FF99;" vertex="1" parent="1">
          <mxGeometry x="390" y="640" width="40" height="10" as="geometry" />
        </mxCell>
        <mxCell id="KJ__jrjOPIoHM4R-JrTV-134" value="&lt;span style=&quot;font-size: 6px;&quot;&gt;0x93939393&lt;/span&gt;" style="text;html=1;align=center;verticalAlign=middle;whiteSpace=wrap;rounded=0;fillColor=#CCFFCC;" vertex="1" parent="1">
          <mxGeometry x="350" y="640" width="40" height="10" as="geometry" />
        </mxCell>
        <mxCell id="KJ__jrjOPIoHM4R-JrTV-139" value="&lt;font style=&quot;font-size: 6px;&quot;&gt;0x81818181&lt;/font&gt;" style="text;html=1;align=center;verticalAlign=middle;whiteSpace=wrap;rounded=0;fillColor=#FF99CC;" vertex="1" parent="1">
          <mxGeometry x="310" y="680" width="40" height="10" as="geometry" />
        </mxCell>
        <mxCell id="KJ__jrjOPIoHM4R-JrTV-140" value="&lt;span style=&quot;font-size: 6px;&quot;&gt;0x81818181&lt;/span&gt;" style="text;html=1;align=center;verticalAlign=middle;whiteSpace=wrap;rounded=0;fillColor=#FFCCCC;" vertex="1" parent="1">
          <mxGeometry x="270" y="680" width="40" height="10" as="geometry" />
        </mxCell>
        <mxCell id="KJ__jrjOPIoHM4R-JrTV-141" value="&lt;span style=&quot;font-size: 6px;&quot;&gt;0x91919191&lt;/span&gt;" style="text;html=1;align=center;verticalAlign=middle;whiteSpace=wrap;rounded=0;fillColor=#FF99CC;" vertex="1" parent="1">
          <mxGeometry x="390" y="680" width="40" height="10" as="geometry" />
        </mxCell>
        <mxCell id="KJ__jrjOPIoHM4R-JrTV-142" value="&lt;span style=&quot;font-size: 6px;&quot;&gt;0x91919191&lt;/span&gt;" style="text;html=1;align=center;verticalAlign=middle;whiteSpace=wrap;rounded=0;fillColor=#FFCCCC;" vertex="1" parent="1">
          <mxGeometry x="350" y="680" width="40" height="10" as="geometry" />
        </mxCell>
        <mxCell id="KJ__jrjOPIoHM4R-JrTV-143" value="&lt;font style=&quot;font-size: 6px;&quot;&gt;0x83838383&lt;/font&gt;" style="text;html=1;align=center;verticalAlign=middle;whiteSpace=wrap;rounded=0;fillColor=#99FF99;" vertex="1" parent="1">
          <mxGeometry x="480" y="680" width="40" height="10" as="geometry" />
        </mxCell>
        <mxCell id="KJ__jrjOPIoHM4R-JrTV-144" value="&lt;span style=&quot;font-size: 6px;&quot;&gt;0x83838383&lt;/span&gt;" style="text;html=1;align=center;verticalAlign=middle;whiteSpace=wrap;rounded=0;fillColor=#CCFFCC;" vertex="1" parent="1">
          <mxGeometry x="440" y="680" width="40" height="10" as="geometry" />
        </mxCell>
        <mxCell id="KJ__jrjOPIoHM4R-JrTV-145" value="&lt;span style=&quot;font-size: 6px;&quot;&gt;0x93939393&lt;/span&gt;" style="text;html=1;align=center;verticalAlign=middle;whiteSpace=wrap;rounded=0;fillColor=#99FF99;" vertex="1" parent="1">
          <mxGeometry x="560" y="680" width="40" height="10" as="geometry" />
        </mxCell>
        <mxCell id="KJ__jrjOPIoHM4R-JrTV-146" value="&lt;span style=&quot;font-size: 6px;&quot;&gt;0x93939393&lt;/span&gt;" style="text;html=1;align=center;verticalAlign=middle;whiteSpace=wrap;rounded=0;fillColor=#CCFFCC;" vertex="1" parent="1">
          <mxGeometry x="520" y="680" width="40" height="10" as="geometry" />
        </mxCell>
        <mxCell id="KJ__jrjOPIoHM4R-JrTV-147" value="&lt;font style=&quot;font-size: 6px;&quot;&gt;0x87878787&lt;/font&gt;" style="text;html=1;align=center;verticalAlign=middle;whiteSpace=wrap;rounded=0;fillColor=#9999FF;" vertex="1" parent="1">
          <mxGeometry x="140" y="680" width="40" height="10" as="geometry" />
        </mxCell>
        <mxCell id="KJ__jrjOPIoHM4R-JrTV-148" value="&lt;span style=&quot;font-size: 6px;&quot;&gt;0x87878787&lt;/span&gt;" style="text;html=1;align=center;verticalAlign=middle;whiteSpace=wrap;rounded=0;fillColor=#CCCCFF;" vertex="1" parent="1">
          <mxGeometry x="100" y="680" width="40" height="10" as="geometry" />
        </mxCell>
        <mxCell id="KJ__jrjOPIoHM4R-JrTV-149" value="&lt;span style=&quot;font-size: 6px;&quot;&gt;0x97979797&lt;/span&gt;" style="text;html=1;align=center;verticalAlign=middle;whiteSpace=wrap;rounded=0;fillColor=#9999FF;" vertex="1" parent="1">
          <mxGeometry x="220" y="680" width="40" height="10" as="geometry" />
        </mxCell>
        <mxCell id="KJ__jrjOPIoHM4R-JrTV-150" value="&lt;span style=&quot;font-size: 6px;&quot;&gt;0x97979797&lt;/span&gt;" style="text;html=1;align=center;verticalAlign=middle;whiteSpace=wrap;rounded=0;fillColor=#CCCCFF;" vertex="1" parent="1">
          <mxGeometry x="180" y="680" width="40" height="10" as="geometry" />
        </mxCell>
        <mxCell id="KJ__jrjOPIoHM4R-JrTV-151" value="&lt;font style=&quot;font-size: 6px;&quot;&gt;0x81818181&lt;/font&gt;" style="text;html=1;align=center;verticalAlign=middle;whiteSpace=wrap;rounded=0;fillColor=#FF99CC;" vertex="1" parent="1">
          <mxGeometry x="150" y="760" width="40" height="10" as="geometry" />
        </mxCell>
        <mxCell id="KJ__jrjOPIoHM4R-JrTV-152" value="&lt;span style=&quot;font-size: 6px;&quot;&gt;0x81818181&lt;/span&gt;" style="text;html=1;align=center;verticalAlign=middle;whiteSpace=wrap;rounded=0;fillColor=#FFCCCC;" vertex="1" parent="1">
          <mxGeometry x="100" y="760" width="40" height="10" as="geometry" />
        </mxCell>
        <mxCell id="KJ__jrjOPIoHM4R-JrTV-153" value="&lt;span style=&quot;font-size: 6px;&quot;&gt;0x91919191&lt;/span&gt;" style="text;html=1;align=center;verticalAlign=middle;whiteSpace=wrap;rounded=0;fillColor=#FF99CC;" vertex="1" parent="1">
          <mxGeometry x="150" y="780" width="40" height="10" as="geometry" />
        </mxCell>
        <mxCell id="KJ__jrjOPIoHM4R-JrTV-154" value="&lt;span style=&quot;font-size: 6px;&quot;&gt;0x91919191&lt;/span&gt;" style="text;html=1;align=center;verticalAlign=middle;whiteSpace=wrap;rounded=0;fillColor=#FFCCCC;" vertex="1" parent="1">
          <mxGeometry x="100" y="780" width="40" height="10" as="geometry" />
        </mxCell>
        <mxCell id="KJ__jrjOPIoHM4R-JrTV-155" value="&lt;font style=&quot;font-size: 6px;&quot;&gt;0x83838383&lt;/font&gt;" style="text;html=1;align=center;verticalAlign=middle;whiteSpace=wrap;rounded=0;fillColor=#99FF99;" vertex="1" parent="1">
          <mxGeometry x="150" y="800" width="40" height="10" as="geometry" />
        </mxCell>
        <mxCell id="KJ__jrjOPIoHM4R-JrTV-156" value="&lt;span style=&quot;font-size: 6px;&quot;&gt;0x83838383&lt;/span&gt;" style="text;html=1;align=center;verticalAlign=middle;whiteSpace=wrap;rounded=0;fillColor=#CCFFCC;" vertex="1" parent="1">
          <mxGeometry x="100" y="800" width="40" height="10" as="geometry" />
        </mxCell>
        <mxCell id="KJ__jrjOPIoHM4R-JrTV-157" value="&lt;span style=&quot;font-size: 6px;&quot;&gt;0x93939393&lt;/span&gt;" style="text;html=1;align=center;verticalAlign=middle;whiteSpace=wrap;rounded=0;fillColor=#99FF99;" vertex="1" parent="1">
          <mxGeometry x="150" y="820" width="40" height="10" as="geometry" />
        </mxCell>
        <mxCell id="KJ__jrjOPIoHM4R-JrTV-158" value="&lt;span style=&quot;font-size: 6px;&quot;&gt;0x93939393&lt;/span&gt;" style="text;html=1;align=center;verticalAlign=middle;whiteSpace=wrap;rounded=0;fillColor=#CCFFCC;" vertex="1" parent="1">
          <mxGeometry x="100" y="820" width="40" height="10" as="geometry" />
        </mxCell>
        <mxCell id="KJ__jrjOPIoHM4R-JrTV-159" value="&lt;font style=&quot;font-size: 6px;&quot;&gt;0x87878787&lt;/font&gt;" style="text;html=1;align=center;verticalAlign=middle;whiteSpace=wrap;rounded=0;fillColor=#9999FF;" vertex="1" parent="1">
          <mxGeometry x="150" y="720" width="40" height="10" as="geometry" />
        </mxCell>
        <mxCell id="KJ__jrjOPIoHM4R-JrTV-160" value="&lt;span style=&quot;font-size: 6px;&quot;&gt;0x87878787&lt;/span&gt;" style="text;html=1;align=center;verticalAlign=middle;whiteSpace=wrap;rounded=0;fillColor=#CCCCFF;" vertex="1" parent="1">
          <mxGeometry x="100" y="720" width="40" height="10" as="geometry" />
        </mxCell>
        <mxCell id="KJ__jrjOPIoHM4R-JrTV-161" value="&lt;span style=&quot;font-size: 6px;&quot;&gt;0x97979797&lt;/span&gt;" style="text;html=1;align=center;verticalAlign=middle;whiteSpace=wrap;rounded=0;fillColor=#9999FF;" vertex="1" parent="1">
          <mxGeometry x="150" y="740" width="40" height="10" as="geometry" />
        </mxCell>
        <mxCell id="KJ__jrjOPIoHM4R-JrTV-162" value="&lt;span style=&quot;font-size: 6px;&quot;&gt;0x97979797&lt;/span&gt;" style="text;html=1;align=center;verticalAlign=middle;whiteSpace=wrap;rounded=0;fillColor=#CCCCFF;" vertex="1" parent="1">
          <mxGeometry x="100" y="740" width="40" height="10" as="geometry" />
        </mxCell>
        <mxCell id="KJ__jrjOPIoHM4R-JrTV-164" value="&lt;font style=&quot;font-size: 18px;&quot;&gt;End Result in Buffer&lt;/font&gt;" style="text;html=1;align=center;verticalAlign=middle;whiteSpace=wrap;rounded=0;" vertex="1" parent="1">
          <mxGeometry y="850" width="210" height="30" as="geometry" />
        </mxCell>
        <mxCell id="KJ__jrjOPIoHM4R-JrTV-238" value="&lt;font style=&quot;font-size: 6px;&quot;&gt;0x01010101&lt;/font&gt;" style="text;html=1;align=center;verticalAlign=middle;whiteSpace=wrap;rounded=0;fillColor=#FF99CC;" vertex="1" parent="1">
          <mxGeometry x="80" y="920" width="40" height="10" as="geometry" />
        </mxCell>
        <mxCell id="KJ__jrjOPIoHM4R-JrTV-239" value="Bank 0" style="text;html=1;align=center;verticalAlign=middle;whiteSpace=wrap;rounded=0;" vertex="1" parent="1">
          <mxGeometry x="20" y="920" width="60" height="30" as="geometry" />
        </mxCell>
        <mxCell id="KJ__jrjOPIoHM4R-JrTV-240" value="Block 0" style="text;html=1;align=center;verticalAlign=middle;whiteSpace=wrap;rounded=0;" vertex="1" parent="1">
          <mxGeometry x="80" y="890" width="60" height="30" as="geometry" />
        </mxCell>
        <mxCell id="KJ__jrjOPIoHM4R-JrTV-241" value="&lt;font style=&quot;font-size: 6px;&quot;&gt;0x 61616161&lt;/font&gt;" style="text;html=1;align=center;verticalAlign=middle;whiteSpace=wrap;rounded=0;fillColor=#FFCCCC;" vertex="1" parent="1">
          <mxGeometry x="120" y="920" width="40" height="10" as="geometry" />
        </mxCell>
        <mxCell id="KJ__jrjOPIoHM4R-JrTV-242" value="&lt;font style=&quot;font-size: 6px;&quot;&gt;0x43434343&lt;/font&gt;" style="text;html=1;align=center;verticalAlign=middle;whiteSpace=wrap;rounded=0;fillColor=#99FF99;" vertex="1" parent="1">
          <mxGeometry x="80" y="930" width="40" height="10" as="geometry" />
        </mxCell>
        <mxCell id="KJ__jrjOPIoHM4R-JrTV-243" value="&lt;font style=&quot;font-size: 6px;&quot;&gt;0xA3A3A3A3&lt;/font&gt;" style="text;html=1;align=center;verticalAlign=middle;whiteSpace=wrap;rounded=0;fillColor=#CCFFCC;" vertex="1" parent="1">
          <mxGeometry x="120" y="930" width="40" height="10" as="geometry" />
        </mxCell>
        <mxCell id="KJ__jrjOPIoHM4R-JrTV-244" value="&lt;font style=&quot;font-size: 6px;&quot;&gt;0x27272727&lt;/font&gt;" style="text;html=1;align=center;verticalAlign=middle;whiteSpace=wrap;rounded=0;fillColor=#9999FF;" vertex="1" parent="1">
          <mxGeometry x="80" y="940" width="40" height="10" as="geometry" />
        </mxCell>
        <mxCell id="KJ__jrjOPIoHM4R-JrTV-245" value="&lt;font style=&quot;font-size: 6px;&quot;&gt;0x87878787&lt;/font&gt;" style="text;html=1;align=center;verticalAlign=middle;whiteSpace=wrap;rounded=0;fillColor=#CCCCFF;" vertex="1" parent="1">
          <mxGeometry x="120" y="940" width="40" height="10" as="geometry" />
        </mxCell>
        <mxCell id="KJ__jrjOPIoHM4R-JrTV-246" value="&lt;font style=&quot;font-size: 6px;&quot;&gt;0x61616161&lt;/font&gt;" style="text;html=1;align=center;verticalAlign=middle;whiteSpace=wrap;rounded=0;fillColor=#FF99CC;" vertex="1" parent="1">
          <mxGeometry x="180" y="920" width="40" height="10" as="geometry" />
        </mxCell>
        <mxCell id="KJ__jrjOPIoHM4R-JrTV-247" value="&lt;font style=&quot;font-size: 6px;&quot;&gt;0x01010101&lt;/font&gt;" style="text;html=1;align=center;verticalAlign=middle;whiteSpace=wrap;rounded=0;fillColor=#FFCCCC;" vertex="1" parent="1">
          <mxGeometry x="220" y="920" width="40" height="10" as="geometry" />
        </mxCell>
        <mxCell id="KJ__jrjOPIoHM4R-JrTV-248" value="&lt;font style=&quot;font-size: 6px;&quot;&gt;0xA3A3A3A3&lt;/font&gt;" style="text;html=1;align=center;verticalAlign=middle;whiteSpace=wrap;rounded=0;fillColor=#99FF99;" vertex="1" parent="1">
          <mxGeometry x="180" y="930" width="40" height="10" as="geometry" />
        </mxCell>
        <mxCell id="KJ__jrjOPIoHM4R-JrTV-249" value="&lt;font style=&quot;font-size: 6px;&quot;&gt;0x43434343&lt;/font&gt;" style="text;html=1;align=center;verticalAlign=middle;whiteSpace=wrap;rounded=0;fillColor=#CCFFCC;" vertex="1" parent="1">
          <mxGeometry x="220" y="930" width="40" height="10" as="geometry" />
        </mxCell>
        <mxCell id="KJ__jrjOPIoHM4R-JrTV-250" value="&lt;font style=&quot;font-size: 6px;&quot;&gt;0x87878787&lt;/font&gt;" style="text;html=1;align=center;verticalAlign=middle;whiteSpace=wrap;rounded=0;fillColor=#9999FF;" vertex="1" parent="1">
          <mxGeometry x="180" y="940" width="40" height="10" as="geometry" />
        </mxCell>
        <mxCell id="KJ__jrjOPIoHM4R-JrTV-251" value="&lt;font style=&quot;font-size: 6px;&quot;&gt;0x27272727&lt;/font&gt;" style="text;html=1;align=center;verticalAlign=middle;whiteSpace=wrap;rounded=0;fillColor=#CCCCFF;" vertex="1" parent="1">
          <mxGeometry x="220" y="940" width="40" height="10" as="geometry" />
        </mxCell>
        <mxCell id="KJ__jrjOPIoHM4R-JrTV-252" value="&lt;font style=&quot;font-size: 6px;&quot;&gt;0x11111111&lt;/font&gt;" style="text;html=1;align=center;verticalAlign=middle;whiteSpace=wrap;rounded=0;fillColor=#FF99CC;" vertex="1" parent="1">
          <mxGeometry x="80" y="960" width="40" height="10" as="geometry" />
        </mxCell>
        <mxCell id="KJ__jrjOPIoHM4R-JrTV-253" value="Bank 1" style="text;html=1;align=center;verticalAlign=middle;whiteSpace=wrap;rounded=0;" vertex="1" parent="1">
          <mxGeometry x="20" y="960" width="60" height="30" as="geometry" />
        </mxCell>
        <mxCell id="KJ__jrjOPIoHM4R-JrTV-254" value="&lt;font style=&quot;font-size: 6px;&quot;&gt;0x71717171&lt;/font&gt;" style="text;html=1;align=center;verticalAlign=middle;whiteSpace=wrap;rounded=0;fillColor=#FFCCCC;" vertex="1" parent="1">
          <mxGeometry x="120" y="960" width="40" height="10" as="geometry" />
        </mxCell>
        <mxCell id="KJ__jrjOPIoHM4R-JrTV-255" value="&lt;font style=&quot;font-size: 6px;&quot;&gt;0x53535353&lt;/font&gt;" style="text;html=1;align=center;verticalAlign=middle;whiteSpace=wrap;rounded=0;fillColor=#99FF99;" vertex="1" parent="1">
          <mxGeometry x="80" y="970" width="40" height="10" as="geometry" />
        </mxCell>
        <mxCell id="KJ__jrjOPIoHM4R-JrTV-256" value="&lt;span style=&quot;font-size: 6px;&quot;&gt;0xB3B3B3B3&lt;/span&gt;" style="text;html=1;align=center;verticalAlign=middle;whiteSpace=wrap;rounded=0;fillColor=#CCFFCC;" vertex="1" parent="1">
          <mxGeometry x="120" y="970" width="40" height="10" as="geometry" />
        </mxCell>
        <mxCell id="KJ__jrjOPIoHM4R-JrTV-257" value="&lt;font style=&quot;font-size: 6px;&quot;&gt;0x37373737&lt;/font&gt;" style="text;html=1;align=center;verticalAlign=middle;whiteSpace=wrap;rounded=0;fillColor=#9999FF;" vertex="1" parent="1">
          <mxGeometry x="80" y="980" width="40" height="10" as="geometry" />
        </mxCell>
        <mxCell id="KJ__jrjOPIoHM4R-JrTV-258" value="&lt;font style=&quot;font-size: 6px;&quot;&gt;0x97979797&lt;/font&gt;" style="text;html=1;align=center;verticalAlign=middle;whiteSpace=wrap;rounded=0;fillColor=#CCCCFF;" vertex="1" parent="1">
          <mxGeometry x="120" y="980" width="40" height="10" as="geometry" />
        </mxCell>
        <mxCell id="KJ__jrjOPIoHM4R-JrTV-259" value="&lt;font style=&quot;font-size: 6px;&quot;&gt;0x71717171&lt;/font&gt;" style="text;html=1;align=center;verticalAlign=middle;whiteSpace=wrap;rounded=0;fillColor=#FF99CC;" vertex="1" parent="1">
          <mxGeometry x="180" y="960" width="40" height="10" as="geometry" />
        </mxCell>
        <mxCell id="KJ__jrjOPIoHM4R-JrTV-260" value="&lt;font style=&quot;font-size: 6px;&quot;&gt;0x11111111&lt;/font&gt;" style="text;html=1;align=center;verticalAlign=middle;whiteSpace=wrap;rounded=0;fillColor=#FFCCCC;" vertex="1" parent="1">
          <mxGeometry x="220" y="960" width="40" height="10" as="geometry" />
        </mxCell>
        <mxCell id="KJ__jrjOPIoHM4R-JrTV-261" value="&lt;font style=&quot;font-size: 6px;&quot;&gt;0xB3B3B3B3&lt;/font&gt;" style="text;html=1;align=center;verticalAlign=middle;whiteSpace=wrap;rounded=0;fillColor=#99FF99;" vertex="1" parent="1">
          <mxGeometry x="180" y="970" width="40" height="10" as="geometry" />
        </mxCell>
        <mxCell id="KJ__jrjOPIoHM4R-JrTV-262" value="&lt;font style=&quot;font-size: 6px;&quot;&gt;0x53535353&lt;/font&gt;" style="text;html=1;align=center;verticalAlign=middle;whiteSpace=wrap;rounded=0;fillColor=#CCFFCC;" vertex="1" parent="1">
          <mxGeometry x="220" y="970" width="40" height="10" as="geometry" />
        </mxCell>
        <mxCell id="KJ__jrjOPIoHM4R-JrTV-263" value="&lt;span style=&quot;font-size: 6px;&quot;&gt;0x97979797&lt;/span&gt;" style="text;html=1;align=center;verticalAlign=middle;whiteSpace=wrap;rounded=0;fillColor=#9999FF;" vertex="1" parent="1">
          <mxGeometry x="180" y="980" width="40" height="10" as="geometry" />
        </mxCell>
        <mxCell id="KJ__jrjOPIoHM4R-JrTV-264" value="&lt;span style=&quot;font-size: 6px;&quot;&gt;0x37373737&lt;/span&gt;" style="text;html=1;align=center;verticalAlign=middle;whiteSpace=wrap;rounded=0;fillColor=#CCCCFF;" vertex="1" parent="1">
          <mxGeometry x="220" y="980" width="40" height="10" as="geometry" />
        </mxCell>
        <mxCell id="KJ__jrjOPIoHM4R-JrTV-265" value="&lt;font style=&quot;font-size: 6px;&quot;&gt;0x21212121&lt;/font&gt;" style="text;html=1;align=center;verticalAlign=middle;whiteSpace=wrap;rounded=0;fillColor=#FF99CC;" vertex="1" parent="1">
          <mxGeometry x="80" y="1000" width="40" height="10" as="geometry" />
        </mxCell>
        <mxCell id="KJ__jrjOPIoHM4R-JrTV-266" value="Bank 2" style="text;html=1;align=center;verticalAlign=middle;whiteSpace=wrap;rounded=0;" vertex="1" parent="1">
          <mxGeometry x="20" y="1000" width="60" height="30" as="geometry" />
        </mxCell>
        <mxCell id="KJ__jrjOPIoHM4R-JrTV-267" value="&lt;font style=&quot;font-size: 6px;&quot;&gt;0x81818181&lt;/font&gt;" style="text;html=1;align=center;verticalAlign=middle;whiteSpace=wrap;rounded=0;fillColor=#FFCCCC;" vertex="1" parent="1">
          <mxGeometry x="120" y="1000" width="40" height="10" as="geometry" />
        </mxCell>
        <mxCell id="KJ__jrjOPIoHM4R-JrTV-268" value="&lt;font style=&quot;font-size: 6px;&quot;&gt;0x03030303&lt;/font&gt;" style="text;html=1;align=center;verticalAlign=middle;whiteSpace=wrap;rounded=0;fillColor=#99FF99;" vertex="1" parent="1">
          <mxGeometry x="80" y="1010" width="40" height="10" as="geometry" />
        </mxCell>
        <mxCell id="KJ__jrjOPIoHM4R-JrTV-269" value="&lt;span style=&quot;font-size: 6px;&quot;&gt;0x63636363&lt;/span&gt;" style="text;html=1;align=center;verticalAlign=middle;whiteSpace=wrap;rounded=0;fillColor=#CCFFCC;" vertex="1" parent="1">
          <mxGeometry x="120" y="1010" width="40" height="10" as="geometry" />
        </mxCell>
        <mxCell id="KJ__jrjOPIoHM4R-JrTV-270" value="&lt;font style=&quot;font-size: 6px;&quot;&gt;0x47474747&lt;/font&gt;" style="text;html=1;align=center;verticalAlign=middle;whiteSpace=wrap;rounded=0;fillColor=#9999FF;" vertex="1" parent="1">
          <mxGeometry x="80" y="1020" width="40" height="10" as="geometry" />
        </mxCell>
        <mxCell id="KJ__jrjOPIoHM4R-JrTV-271" value="&lt;font style=&quot;font-size: 6px;&quot;&gt;0xA7A7A7A7&lt;/font&gt;" style="text;html=1;align=center;verticalAlign=middle;whiteSpace=wrap;rounded=0;fillColor=#CCCCFF;" vertex="1" parent="1">
          <mxGeometry x="120" y="1020" width="40" height="10" as="geometry" />
        </mxCell>
        <mxCell id="KJ__jrjOPIoHM4R-JrTV-272" value="&lt;span style=&quot;font-size: 6px;&quot;&gt;0x81818181&lt;/span&gt;" style="text;html=1;align=center;verticalAlign=middle;whiteSpace=wrap;rounded=0;fillColor=#FF99CC;" vertex="1" parent="1">
          <mxGeometry x="180" y="1000" width="40" height="10" as="geometry" />
        </mxCell>
        <mxCell id="KJ__jrjOPIoHM4R-JrTV-273" value="&lt;span style=&quot;font-size: 6px;&quot;&gt;0x21212121&lt;/span&gt;" style="text;html=1;align=center;verticalAlign=middle;whiteSpace=wrap;rounded=0;fillColor=#FFCCCC;" vertex="1" parent="1">
          <mxGeometry x="220" y="1000" width="40" height="10" as="geometry" />
        </mxCell>
        <mxCell id="KJ__jrjOPIoHM4R-JrTV-274" value="&lt;span style=&quot;font-size: 6px;&quot;&gt;0x63636363&lt;/span&gt;" style="text;html=1;align=center;verticalAlign=middle;whiteSpace=wrap;rounded=0;fillColor=#99FF99;" vertex="1" parent="1">
          <mxGeometry x="180" y="1010" width="40" height="10" as="geometry" />
        </mxCell>
        <mxCell id="KJ__jrjOPIoHM4R-JrTV-275" value="&lt;span style=&quot;font-size: 6px;&quot;&gt;0x03030303&lt;/span&gt;" style="text;html=1;align=center;verticalAlign=middle;whiteSpace=wrap;rounded=0;fillColor=#CCFFCC;" vertex="1" parent="1">
          <mxGeometry x="220" y="1010" width="40" height="10" as="geometry" />
        </mxCell>
        <mxCell id="KJ__jrjOPIoHM4R-JrTV-276" value="&lt;span style=&quot;font-size: 6px;&quot;&gt;0xA7A7A7A7&lt;/span&gt;" style="text;html=1;align=center;verticalAlign=middle;whiteSpace=wrap;rounded=0;fillColor=#9999FF;" vertex="1" parent="1">
          <mxGeometry x="180" y="1020" width="40" height="10" as="geometry" />
        </mxCell>
        <mxCell id="KJ__jrjOPIoHM4R-JrTV-277" value="&lt;span style=&quot;font-size: 6px;&quot;&gt;0x47474747&lt;/span&gt;" style="text;html=1;align=center;verticalAlign=middle;whiteSpace=wrap;rounded=0;fillColor=#CCCCFF;" vertex="1" parent="1">
          <mxGeometry x="220" y="1020" width="40" height="10" as="geometry" />
        </mxCell>
        <mxCell id="KJ__jrjOPIoHM4R-JrTV-278" value="&lt;font style=&quot;font-size: 6px;&quot;&gt;0x31313131&lt;/font&gt;" style="text;html=1;align=center;verticalAlign=middle;whiteSpace=wrap;rounded=0;fillColor=#FF99CC;" vertex="1" parent="1">
          <mxGeometry x="80" y="1040" width="40" height="10" as="geometry" />
        </mxCell>
        <mxCell id="KJ__jrjOPIoHM4R-JrTV-279" value="Bank 3" style="text;html=1;align=center;verticalAlign=middle;whiteSpace=wrap;rounded=0;" vertex="1" parent="1">
          <mxGeometry x="20" y="1040" width="60" height="30" as="geometry" />
        </mxCell>
        <mxCell id="KJ__jrjOPIoHM4R-JrTV-280" value="&lt;font style=&quot;font-size: 6px;&quot;&gt;0x91919191&lt;/font&gt;" style="text;html=1;align=center;verticalAlign=middle;whiteSpace=wrap;rounded=0;fillColor=#FFCCCC;" vertex="1" parent="1">
          <mxGeometry x="120" y="1040" width="40" height="10" as="geometry" />
        </mxCell>
        <mxCell id="KJ__jrjOPIoHM4R-JrTV-281" value="&lt;font style=&quot;font-size: 6px;&quot;&gt;0x13131313&lt;/font&gt;" style="text;html=1;align=center;verticalAlign=middle;whiteSpace=wrap;rounded=0;fillColor=#99FF99;" vertex="1" parent="1">
          <mxGeometry x="80" y="1050" width="40" height="10" as="geometry" />
        </mxCell>
        <mxCell id="KJ__jrjOPIoHM4R-JrTV-282" value="&lt;span style=&quot;font-size: 6px;&quot;&gt;0x73737373&lt;/span&gt;" style="text;html=1;align=center;verticalAlign=middle;whiteSpace=wrap;rounded=0;fillColor=#CCFFCC;" vertex="1" parent="1">
          <mxGeometry x="120" y="1050" width="40" height="10" as="geometry" />
        </mxCell>
        <mxCell id="KJ__jrjOPIoHM4R-JrTV-283" value="&lt;font style=&quot;font-size: 6px;&quot;&gt;0x57575757&lt;/font&gt;" style="text;html=1;align=center;verticalAlign=middle;whiteSpace=wrap;rounded=0;fillColor=#9999FF;" vertex="1" parent="1">
          <mxGeometry x="80" y="1060" width="40" height="10" as="geometry" />
        </mxCell>
        <mxCell id="KJ__jrjOPIoHM4R-JrTV-284" value="&lt;font style=&quot;font-size: 6px;&quot;&gt;0xB7B7B7B7&lt;/font&gt;" style="text;html=1;align=center;verticalAlign=middle;whiteSpace=wrap;rounded=0;fillColor=#CCCCFF;" vertex="1" parent="1">
          <mxGeometry x="120" y="1060" width="40" height="10" as="geometry" />
        </mxCell>
        <mxCell id="KJ__jrjOPIoHM4R-JrTV-285" value="&lt;span style=&quot;font-size: 6px;&quot;&gt;0x91919191&lt;/span&gt;" style="text;html=1;align=center;verticalAlign=middle;whiteSpace=wrap;rounded=0;fillColor=#FF99CC;" vertex="1" parent="1">
          <mxGeometry x="180" y="1040" width="40" height="10" as="geometry" />
        </mxCell>
        <mxCell id="KJ__jrjOPIoHM4R-JrTV-286" value="&lt;span style=&quot;font-size: 6px;&quot;&gt;0x31313131&lt;/span&gt;" style="text;html=1;align=center;verticalAlign=middle;whiteSpace=wrap;rounded=0;fillColor=#FFCCCC;" vertex="1" parent="1">
          <mxGeometry x="220" y="1040" width="40" height="10" as="geometry" />
        </mxCell>
        <mxCell id="KJ__jrjOPIoHM4R-JrTV-287" value="&lt;span style=&quot;font-size: 6px;&quot;&gt;0x73737373&lt;/span&gt;" style="text;html=1;align=center;verticalAlign=middle;whiteSpace=wrap;rounded=0;fillColor=#99FF99;" vertex="1" parent="1">
          <mxGeometry x="180" y="1050" width="40" height="10" as="geometry" />
        </mxCell>
        <mxCell id="KJ__jrjOPIoHM4R-JrTV-288" value="&lt;span style=&quot;font-size: 6px;&quot;&gt;0x13131313&lt;/span&gt;" style="text;html=1;align=center;verticalAlign=middle;whiteSpace=wrap;rounded=0;fillColor=#CCFFCC;" vertex="1" parent="1">
          <mxGeometry x="220" y="1050" width="40" height="10" as="geometry" />
        </mxCell>
        <mxCell id="KJ__jrjOPIoHM4R-JrTV-289" value="&lt;span style=&quot;font-size: 6px;&quot;&gt;0xB7B7B7B7&lt;/span&gt;" style="text;html=1;align=center;verticalAlign=middle;whiteSpace=wrap;rounded=0;fillColor=#9999FF;" vertex="1" parent="1">
          <mxGeometry x="180" y="1060" width="40" height="10" as="geometry" />
        </mxCell>
        <mxCell id="KJ__jrjOPIoHM4R-JrTV-290" value="&lt;span style=&quot;font-size: 6px;&quot;&gt;0x57575757&lt;/span&gt;" style="text;html=1;align=center;verticalAlign=middle;whiteSpace=wrap;rounded=0;fillColor=#CCCCFF;" vertex="1" parent="1">
          <mxGeometry x="220" y="1060" width="40" height="10" as="geometry" />
        </mxCell>
        <mxCell id="KJ__jrjOPIoHM4R-JrTV-291" value="&lt;font style=&quot;font-size: 6px;&quot;&gt;0x41414141&lt;/font&gt;" style="text;html=1;align=center;verticalAlign=middle;whiteSpace=wrap;rounded=0;fillColor=#FF99CC;" vertex="1" parent="1">
          <mxGeometry x="80" y="1080" width="40" height="10" as="geometry" />
        </mxCell>
        <mxCell id="KJ__jrjOPIoHM4R-JrTV-292" value="Bank 4" style="text;html=1;align=center;verticalAlign=middle;whiteSpace=wrap;rounded=0;" vertex="1" parent="1">
          <mxGeometry x="20" y="1080" width="60" height="30" as="geometry" />
        </mxCell>
        <mxCell id="KJ__jrjOPIoHM4R-JrTV-293" value="&lt;font style=&quot;font-size: 6px;&quot;&gt;0xA1A1A1A1&lt;/font&gt;" style="text;html=1;align=center;verticalAlign=middle;whiteSpace=wrap;rounded=0;fillColor=#FFCCCC;" vertex="1" parent="1">
          <mxGeometry x="120" y="1080" width="40" height="10" as="geometry" />
        </mxCell>
        <mxCell id="KJ__jrjOPIoHM4R-JrTV-294" value="&lt;font style=&quot;font-size: 6px;&quot;&gt;0x23232323&lt;/font&gt;" style="text;html=1;align=center;verticalAlign=middle;whiteSpace=wrap;rounded=0;fillColor=#99FF99;" vertex="1" parent="1">
          <mxGeometry x="80" y="1090" width="40" height="10" as="geometry" />
        </mxCell>
        <mxCell id="KJ__jrjOPIoHM4R-JrTV-295" value="&lt;span style=&quot;font-size: 6px;&quot;&gt;0x83838383&lt;/span&gt;" style="text;html=1;align=center;verticalAlign=middle;whiteSpace=wrap;rounded=0;fillColor=#CCFFCC;" vertex="1" parent="1">
          <mxGeometry x="120" y="1090" width="40" height="10" as="geometry" />
        </mxCell>
        <mxCell id="KJ__jrjOPIoHM4R-JrTV-296" value="&lt;font style=&quot;font-size: 6px;&quot;&gt;0x07070707&lt;/font&gt;" style="text;html=1;align=center;verticalAlign=middle;whiteSpace=wrap;rounded=0;fillColor=#9999FF;" vertex="1" parent="1">
          <mxGeometry x="80" y="1100" width="40" height="10" as="geometry" />
        </mxCell>
        <mxCell id="KJ__jrjOPIoHM4R-JrTV-297" value="&lt;font style=&quot;font-size: 6px;&quot;&gt;0x67676767&lt;/font&gt;" style="text;html=1;align=center;verticalAlign=middle;whiteSpace=wrap;rounded=0;fillColor=#CCCCFF;" vertex="1" parent="1">
          <mxGeometry x="120" y="1100" width="40" height="10" as="geometry" />
        </mxCell>
        <mxCell id="KJ__jrjOPIoHM4R-JrTV-298" value="&lt;span style=&quot;font-size: 6px;&quot;&gt;0xA1A1A1A1&lt;/span&gt;" style="text;html=1;align=center;verticalAlign=middle;whiteSpace=wrap;rounded=0;fillColor=#FF99CC;" vertex="1" parent="1">
          <mxGeometry x="180" y="1080" width="40" height="10" as="geometry" />
        </mxCell>
        <mxCell id="KJ__jrjOPIoHM4R-JrTV-299" value="&lt;span style=&quot;font-size: 6px;&quot;&gt;0x41414141&lt;/span&gt;" style="text;html=1;align=center;verticalAlign=middle;whiteSpace=wrap;rounded=0;fillColor=#FFCCCC;" vertex="1" parent="1">
          <mxGeometry x="220" y="1080" width="40" height="10" as="geometry" />
        </mxCell>
        <mxCell id="KJ__jrjOPIoHM4R-JrTV-300" value="&lt;span style=&quot;font-size: 6px;&quot;&gt;0x83838383&lt;/span&gt;" style="text;html=1;align=center;verticalAlign=middle;whiteSpace=wrap;rounded=0;fillColor=#99FF99;" vertex="1" parent="1">
          <mxGeometry x="180" y="1090" width="40" height="10" as="geometry" />
        </mxCell>
        <mxCell id="KJ__jrjOPIoHM4R-JrTV-301" value="&lt;span style=&quot;font-size: 6px;&quot;&gt;0x23232323&lt;/span&gt;" style="text;html=1;align=center;verticalAlign=middle;whiteSpace=wrap;rounded=0;fillColor=#CCFFCC;" vertex="1" parent="1">
          <mxGeometry x="220" y="1090" width="40" height="10" as="geometry" />
        </mxCell>
        <mxCell id="KJ__jrjOPIoHM4R-JrTV-302" value="&lt;span style=&quot;font-size: 6px;&quot;&gt;0x67676767&lt;/span&gt;" style="text;html=1;align=center;verticalAlign=middle;whiteSpace=wrap;rounded=0;fillColor=#9999FF;" vertex="1" parent="1">
          <mxGeometry x="180" y="1100" width="40" height="10" as="geometry" />
        </mxCell>
        <mxCell id="KJ__jrjOPIoHM4R-JrTV-303" value="&lt;span style=&quot;font-size: 6px;&quot;&gt;0x07070707&lt;/span&gt;" style="text;html=1;align=center;verticalAlign=middle;whiteSpace=wrap;rounded=0;fillColor=#CCCCFF;" vertex="1" parent="1">
          <mxGeometry x="220" y="1100" width="40" height="10" as="geometry" />
        </mxCell>
        <mxCell id="KJ__jrjOPIoHM4R-JrTV-304" value="&lt;font style=&quot;font-size: 6px;&quot;&gt;0x51515151&lt;/font&gt;" style="text;html=1;align=center;verticalAlign=middle;whiteSpace=wrap;rounded=0;fillColor=#FF99CC;" vertex="1" parent="1">
          <mxGeometry x="80" y="1120" width="40" height="10" as="geometry" />
        </mxCell>
        <mxCell id="KJ__jrjOPIoHM4R-JrTV-305" value="Bank 5" style="text;html=1;align=center;verticalAlign=middle;whiteSpace=wrap;rounded=0;" vertex="1" parent="1">
          <mxGeometry x="20" y="1120" width="60" height="30" as="geometry" />
        </mxCell>
        <mxCell id="KJ__jrjOPIoHM4R-JrTV-306" value="&lt;font style=&quot;font-size: 6px;&quot;&gt;0xB1B1B1B1&lt;/font&gt;" style="text;html=1;align=center;verticalAlign=middle;whiteSpace=wrap;rounded=0;fillColor=#FFCCCC;" vertex="1" parent="1">
          <mxGeometry x="120" y="1120" width="40" height="10" as="geometry" />
        </mxCell>
        <mxCell id="KJ__jrjOPIoHM4R-JrTV-307" value="&lt;font style=&quot;font-size: 6px;&quot;&gt;0x33333333&lt;/font&gt;" style="text;html=1;align=center;verticalAlign=middle;whiteSpace=wrap;rounded=0;fillColor=#99FF99;" vertex="1" parent="1">
          <mxGeometry x="80" y="1130" width="40" height="10" as="geometry" />
        </mxCell>
        <mxCell id="KJ__jrjOPIoHM4R-JrTV-308" value="&lt;span style=&quot;font-size: 6px;&quot;&gt;0x93939393&lt;/span&gt;" style="text;html=1;align=center;verticalAlign=middle;whiteSpace=wrap;rounded=0;fillColor=#CCFFCC;" vertex="1" parent="1">
          <mxGeometry x="120" y="1130" width="40" height="10" as="geometry" />
        </mxCell>
        <mxCell id="KJ__jrjOPIoHM4R-JrTV-309" value="&lt;font style=&quot;font-size: 6px;&quot;&gt;0x17171717&lt;/font&gt;" style="text;html=1;align=center;verticalAlign=middle;whiteSpace=wrap;rounded=0;fillColor=#9999FF;" vertex="1" parent="1">
          <mxGeometry x="80" y="1140" width="40" height="10" as="geometry" />
        </mxCell>
        <mxCell id="KJ__jrjOPIoHM4R-JrTV-310" value="&lt;font style=&quot;font-size: 6px;&quot;&gt;0x77777777&lt;/font&gt;" style="text;html=1;align=center;verticalAlign=middle;whiteSpace=wrap;rounded=0;fillColor=#CCCCFF;" vertex="1" parent="1">
          <mxGeometry x="120" y="1140" width="40" height="10" as="geometry" />
        </mxCell>
        <mxCell id="KJ__jrjOPIoHM4R-JrTV-311" value="&lt;span style=&quot;font-size: 6px;&quot;&gt;0xB1B1B1B1&lt;/span&gt;" style="text;html=1;align=center;verticalAlign=middle;whiteSpace=wrap;rounded=0;fillColor=#FF99CC;" vertex="1" parent="1">
          <mxGeometry x="180" y="1120" width="40" height="10" as="geometry" />
        </mxCell>
        <mxCell id="KJ__jrjOPIoHM4R-JrTV-312" value="&lt;span style=&quot;font-size: 6px;&quot;&gt;0x51515151&lt;/span&gt;" style="text;html=1;align=center;verticalAlign=middle;whiteSpace=wrap;rounded=0;fillColor=#FFCCCC;" vertex="1" parent="1">
          <mxGeometry x="220" y="1120" width="40" height="10" as="geometry" />
        </mxCell>
        <mxCell id="KJ__jrjOPIoHM4R-JrTV-313" value="&lt;span style=&quot;font-size: 6px;&quot;&gt;0x93939393&lt;/span&gt;" style="text;html=1;align=center;verticalAlign=middle;whiteSpace=wrap;rounded=0;fillColor=#99FF99;" vertex="1" parent="1">
          <mxGeometry x="180" y="1130" width="40" height="10" as="geometry" />
        </mxCell>
        <mxCell id="KJ__jrjOPIoHM4R-JrTV-314" value="&lt;span style=&quot;font-size: 6px;&quot;&gt;0x33333333&lt;/span&gt;" style="text;html=1;align=center;verticalAlign=middle;whiteSpace=wrap;rounded=0;fillColor=#CCFFCC;" vertex="1" parent="1">
          <mxGeometry x="220" y="1130" width="40" height="10" as="geometry" />
        </mxCell>
        <mxCell id="KJ__jrjOPIoHM4R-JrTV-315" value="&lt;span style=&quot;font-size: 6px;&quot;&gt;0x77777777&lt;/span&gt;" style="text;html=1;align=center;verticalAlign=middle;whiteSpace=wrap;rounded=0;fillColor=#9999FF;" vertex="1" parent="1">
          <mxGeometry x="180" y="1140" width="40" height="10" as="geometry" />
        </mxCell>
        <mxCell id="KJ__jrjOPIoHM4R-JrTV-316" value="&lt;span style=&quot;font-size: 6px;&quot;&gt;0x17171717&lt;/span&gt;" style="text;html=1;align=center;verticalAlign=middle;whiteSpace=wrap;rounded=0;fillColor=#CCCCFF;" vertex="1" parent="1">
          <mxGeometry x="220" y="1140" width="40" height="10" as="geometry" />
        </mxCell>
        <mxCell id="KJ__jrjOPIoHM4R-JrTV-317" value="Block 1" style="text;html=1;align=center;verticalAlign=middle;whiteSpace=wrap;rounded=0;" vertex="1" parent="1">
          <mxGeometry x="180" y="890" width="60" height="30" as="geometry" />
        </mxCell>
        <mxCell id="KJ__jrjOPIoHM4R-JrTV-320" value="&lt;h1 style=&quot;margin-top: 0px;&quot;&gt;Address Generation&lt;/h1&gt;&lt;p&gt;Each Buffer must get a special sequence of Addresses.&amp;nbsp; &lt;br&gt;Base Sequence 0 (BS0) is&amp;nbsp;&lt;span style=&quot;text-align: center; background-color: transparent; color: light-dark(rgb(0, 0, 0), rgb(255, 255, 255));&quot;&gt;[0, 4, 2, 1, 5, 3]&lt;br&gt;Base Sequence 1 (BS1) is [1, 5, 3, 0, 4, 2]&lt;/span&gt;&lt;/p&gt;" style="text;html=1;whiteSpace=wrap;overflow=hidden;rounded=0;" vertex="1" parent="1">
          <mxGeometry x="280" y="800" width="560" height="110" as="geometry" />
        </mxCell>
        <mxCell id="KJ__jrjOPIoHM4R-JrTV-321" value="The littele 3x2 Block of data (which is 6x2 times present) lies repeadetly in the Buffer for a higer HDMI width." style="text;html=1;align=center;verticalAlign=middle;whiteSpace=wrap;rounded=0;" vertex="1" parent="1">
          <mxGeometry x="30" y="1160" width="230" height="50" as="geometry" />
        </mxCell>
        <mxCell id="KJ__jrjOPIoHM4R-JrTV-324" value="BS0" style="text;html=1;align=center;verticalAlign=middle;whiteSpace=wrap;rounded=0;" vertex="1" parent="1">
          <mxGeometry x="320" y="920" width="40" height="30" as="geometry" />
        </mxCell>
        <mxCell id="KJ__jrjOPIoHM4R-JrTV-325" value="BS1" style="text;html=1;align=center;verticalAlign=middle;whiteSpace=wrap;rounded=0;" vertex="1" parent="1">
          <mxGeometry x="440" y="920" width="40" height="30" as="geometry" />
        </mxCell>
        <mxCell id="KJ__jrjOPIoHM4R-JrTV-326" value="BS0" style="text;html=1;align=center;verticalAlign=middle;whiteSpace=wrap;rounded=0;" vertex="1" parent="1">
          <mxGeometry x="320" y="960" width="40" height="30" as="geometry" />
        </mxCell>
        <mxCell id="KJ__jrjOPIoHM4R-JrTV-327" value="BS1" style="text;html=1;align=center;verticalAlign=middle;whiteSpace=wrap;rounded=0;" vertex="1" parent="1">
          <mxGeometry x="440" y="960" width="40" height="30" as="geometry" />
        </mxCell>
        <mxCell id="KJ__jrjOPIoHM4R-JrTV-328" value="(BS0+2) % 6&amp;nbsp;" style="text;html=1;align=center;verticalAlign=middle;whiteSpace=wrap;rounded=0;" vertex="1" parent="1">
          <mxGeometry x="320" y="1000" width="80" height="30" as="geometry" />
        </mxCell>
        <mxCell id="KJ__jrjOPIoHM4R-JrTV-329" value="(BS1+2) % 6&amp;nbsp;" style="text;html=1;align=center;verticalAlign=middle;whiteSpace=wrap;rounded=0;" vertex="1" parent="1">
          <mxGeometry x="440" y="1000" width="80" height="30" as="geometry" />
        </mxCell>
        <mxCell id="KJ__jrjOPIoHM4R-JrTV-330" value="(BS0+2) % 6&amp;nbsp;" style="text;html=1;align=center;verticalAlign=middle;whiteSpace=wrap;rounded=0;" vertex="1" parent="1">
          <mxGeometry x="320" y="1040" width="80" height="30" as="geometry" />
        </mxCell>
        <mxCell id="KJ__jrjOPIoHM4R-JrTV-331" value="(BS1+2) % 6&amp;nbsp;" style="text;html=1;align=center;verticalAlign=middle;whiteSpace=wrap;rounded=0;" vertex="1" parent="1">
          <mxGeometry x="440" y="1040" width="80" height="30" as="geometry" />
        </mxCell>
        <mxCell id="KJ__jrjOPIoHM4R-JrTV-332" value="(BS0+4) % 6&amp;nbsp;" style="text;html=1;align=center;verticalAlign=middle;whiteSpace=wrap;rounded=0;" vertex="1" parent="1">
          <mxGeometry x="320" y="1080" width="80" height="30" as="geometry" />
        </mxCell>
        <mxCell id="KJ__jrjOPIoHM4R-JrTV-333" value="(BS1+4) % 6&amp;nbsp;" style="text;html=1;align=center;verticalAlign=middle;whiteSpace=wrap;rounded=0;" vertex="1" parent="1">
          <mxGeometry x="440" y="1080" width="80" height="30" as="geometry" />
        </mxCell>
        <mxCell id="KJ__jrjOPIoHM4R-JrTV-334" value="(BS0+4) % 6&amp;nbsp;" style="text;html=1;align=center;verticalAlign=middle;whiteSpace=wrap;rounded=0;" vertex="1" parent="1">
          <mxGeometry x="320" y="1120" width="80" height="30" as="geometry" />
        </mxCell>
        <mxCell id="KJ__jrjOPIoHM4R-JrTV-335" value="(BS1+4) % 6&amp;nbsp;" style="text;html=1;align=center;verticalAlign=middle;whiteSpace=wrap;rounded=0;" vertex="1" parent="1">
          <mxGeometry x="440" y="1120" width="80" height="30" as="geometry" />
        </mxCell>
      </root>
    </mxGraphModel>
  </diagram>
</mxfile>
